<svg width="1014" height="271" viewBox="0 0 1014 271" fill="none" xmlns="http://www.w3.org/2000/svg">
<path opacity="0.32" fill-rule="evenodd" clip-rule="evenodd" d="M-15.5288 36.0086C-0.670012 44.5102 12.3349 53.4606 23.2904 62.7842C49.6749 85.2387 64.0145 109.712 64.0145 135.189C64.0145 160.666 49.6749 185.14 23.2904 207.594C10.8223 218.205 -4.30015 228.333 -21.7888 237.865L-20.1874 238.727C34.0139 208.988 65.5387 173.414 65.5387 135.189C65.5387 98.3458 36.2509 63.9647 -14.4013 34.8981C-14.7834 35.2685 -15.1592 35.6387 -15.5288 36.0086ZM10.8857 15.5451C43.7384 29.711 70.8627 45.6148 91.0372 62.7842C117.422 85.2387 131.761 109.712 131.761 135.189C131.761 160.666 117.422 185.14 91.0372 207.594C70.735 224.872 43.3943 240.869 10.2603 255.103L11.9734 256.024C87.7237 223.266 133.286 181.143 133.286 135.189C133.286 89.3328 87.9158 47.2907 12.4527 14.5621C11.926 14.8897 11.4036 15.2173 10.8857 15.5451ZM16.2193 12.2669C24.4498 8.50166 33.0504 4.84351 42.002 1.29976C43.5905 1.85728 45.1689 2.41839 46.7377 2.98306C94.1488 20.0492 132.409 40.335 158.787 62.7842C185.172 85.2387 199.511 109.712 199.511 135.189C199.511 160.666 185.172 185.14 158.787 207.594C132.409 230.044 94.1488 250.329 46.7377 267.395C45.1691 267.96 43.5905 268.521 42.0021 269.079C32.1209 265.167 22.6676 261.116 13.6673 256.935L30.8904 266.198C33.8217 267.427 36.7935 268.643 39.8051 269.845C39.3729 269.995 38.94 270.145 38.5063 270.294L39.9143 271.052L40.465 271.23C40.9677 271.055 41.4694 270.88 41.9701 270.705C48.2572 273.187 54.7146 275.612 61.3357 277.978L103.042 291.463C106.485 292.469 109.962 293.461 113.472 294.438C113.25 294.498 113.027 294.559 112.804 294.619L115.457 295.477C115.754 295.396 116.05 295.314 116.347 295.233C126.272 297.959 136.458 300.568 146.889 303.055C145.334 303.414 143.773 303.772 142.207 304.126L145.044 305.044C146.776 304.647 148.503 304.246 150.222 303.843C160.01 306.14 170.011 308.33 180.211 310.408C178.612 310.722 177.009 311.033 175.401 311.342L180.198 311.963C181.5 311.708 182.799 311.451 184.095 311.192C191.055 312.583 198.107 313.923 205.245 315.209L328.865 331.227C333.196 331.587 337.547 331.929 341.917 332.252C340.729 332.322 339.54 332.39 338.35 332.456L346.46 333.507C348.798 333.364 351.131 333.215 353.459 333.061C358.884 333.42 364.337 333.75 369.815 334.052C364.553 334.221 359.269 334.363 353.965 334.479L367.677 336.256C374.201 336.337 380.752 336.378 387.331 336.378C398.705 336.378 410 336.256 421.206 336.015C432.413 336.256 443.708 336.378 455.082 336.378C763.764 336.378 1014 246.303 1014 135.189C1014 24.0755 763.764 -66 455.082 -66C443.708 -66 432.413 -65.8777 421.206 -65.6365C418.962 -65.6848 416.713 -65.7284 414.462 -65.7671L413.638 -65.364C412.207 -65.5324 410.761 -65.6936 409.303 -65.8474C402.014 -65.9488 394.689 -66 387.331 -66C375.958 -66 364.664 -65.8777 353.459 -65.6366C342.254 -65.8777 330.96 -66 319.587 -66C313.964 -66 308.36 -65.9701 302.777 -65.9108C299.484 -65.6448 296.17 -65.3566 292.837 -65.046C289.491 -64.7342 286.134 -64.4007 282.768 -64.0459C283.748 -64.0688 284.729 -64.0909 285.711 -64.112C291.184 -63.9941 296.635 -63.8479 302.064 -63.6737C296.588 -63.3719 291.139 -63.0416 285.716 -62.6831C282.465 -62.898 279.205 -63.1028 275.935 -63.2974C273.038 -62.9683 270.136 -62.6236 267.23 -62.2636C269.549 -62.139 271.863 -62.0093 274.173 -61.8744C266.673 -61.3193 259.228 -60.7101 251.841 -60.048C251.594 -60.0701 251.346 -60.0922 251.099 -60.1142C240.403 -58.5893 229.68 -56.8632 218.99 -54.9462C228.225 -53.8822 237.355 -52.734 246.373 -51.5042C236.77 -50.1119 227.299 -48.6263 217.969 -47.0506C210.762 -48.2677 203.472 -49.4309 196.101 -50.539C194.661 -50.2426 193.223 -49.9428 191.786 -49.6396C199.067 -48.5694 206.272 -47.4454 213.395 -46.2691C203.462 -44.5518 193.692 -42.7319 184.095 -40.8132C178.497 -41.9324 172.84 -43.0181 167.126 -44.0693C165.911 -43.7765 164.698 -43.4813 163.487 -43.1838C169.117 -42.1653 174.692 -41.1136 180.211 -40.0293C170.011 -37.9515 160.01 -35.7617 150.222 -33.4644C146.025 -34.4494 141.789 -35.4146 137.516 -36.3597C136.477 -36.0686 135.442 -35.7759 134.409 -35.4818C138.606 -34.5658 142.766 -33.6305 146.889 -32.6762C136.458 -30.1897 126.272 -27.5806 116.347 -24.8545C113.4 -25.6639 110.43 -26.463 107.438 -27.2516C106.546 -26.9605 105.658 -26.6682 104.772 -26.375C107.693 -25.6131 110.594 -24.8413 113.472 -24.0597C99.6572 -20.2141 86.3561 -16.1408 73.6127 -11.8553C72.0158 -12.3201 70.4111 -12.7816 68.7989 -13.2397C68.029 -12.9293 67.2624 -12.6181 66.4991 -12.3062C68.0348 -11.8739 69.5637 -11.4385 71.0856 -11.0002C61.0193 -7.57298 51.3069 -4.01249 41.97 -0.326584C41.5162 -0.485382 41.0617 -0.64389 40.6064 -0.802109C40.5195 -0.76001 40.4327 -0.717903 40.346 -0.675781C39.7853 -0.40358 39.2277 -0.131119 38.673 0.141579C39.0508 0.271881 39.4281 0.402382 39.8048 0.533089C36.4795 1.86105 33.2026 3.20503 29.9751 4.56469C25.1257 7.11769 20.5371 9.68748 16.2193 12.2669ZM-25.001 190.438C-10.1829 172.962 -2.21143 154.411 -2.21143 135.189C-2.21143 115.968 -10.183 97.4164 -25.001 79.9403V82.3154C-11.1059 99.1747 -3.7356 116.924 -3.7356 135.189C-3.7356 153.455 -11.1059 171.204 -25.001 188.063V190.438ZM291.619 212.34C319.718 188.427 335.005 162.35 335.005 135.189C335.005 108.028 319.718 81.9513 291.619 58.038C263.526 34.1299 222.786 12.5305 172.31 -5.63897C154.779 -11.9497 136.082 -17.8431 116.347 -23.2739C102.424 -19.4426 89.0186 -15.381 76.1741 -11.1051C193.749 23.5545 268.782 76.2178 268.782 135.189C268.782 194.161 193.749 246.824 76.1743 281.484C89.0187 285.759 102.424 289.821 116.347 293.652C136.082 288.221 154.779 282.328 172.31 276.017C222.786 257.848 263.526 236.248 291.619 212.34ZM336.529 135.189C336.529 70.3846 251.411 12.7363 119.222 -24.0597C129.294 -26.7946 139.633 -29.4096 150.222 -31.8988C182.673 -24.2702 212.777 -15.4598 240.06 -5.63897C290.536 12.5305 331.276 34.1299 359.369 58.038C387.468 81.9513 402.755 108.028 402.755 135.189C402.755 162.35 387.468 188.427 359.369 212.34C331.276 236.248 290.536 257.848 240.06 276.017C212.777 285.838 182.673 294.649 150.222 302.277C139.633 299.788 129.294 297.173 119.222 294.438C251.411 257.642 336.529 199.994 336.529 135.189ZM404.279 135.189C404.279 65.0753 304.642 3.33823 153.555 -32.6762C163.521 -34.9829 173.706 -37.1788 184.095 -39.2588C229.637 -30.1406 271.253 -18.7967 307.806 -5.63897C358.282 12.5305 399.023 34.1299 427.115 58.038C455.214 81.9513 470.501 108.028 470.501 135.189C470.501 162.35 455.214 188.427 427.115 212.34C399.023 236.248 358.282 257.848 307.806 276.017C271.253 289.175 229.637 300.519 184.095 309.637C173.706 307.557 163.522 305.361 153.555 303.055C304.642 267.04 404.279 205.303 404.279 135.189ZM472.026 135.189C472.026 60.0412 357.567 -5.48384 187.979 -40.0293C197.8 -41.9589 207.8 -43.7854 217.969 -45.5049C276.863 -35.5457 330.119 -21.9935 375.553 -5.63897C426.029 12.5305 466.77 34.1299 494.862 58.038C522.961 81.9513 538.248 108.028 538.248 135.189C538.248 162.35 522.961 188.427 494.862 212.34C466.77 236.248 426.029 257.848 375.553 276.017C330.119 292.372 276.863 305.924 217.969 315.883C207.8 314.164 197.8 312.337 187.979 310.408C357.567 275.862 472.026 210.337 472.026 135.189ZM539.772 135.189C539.772 55.2371 410.212 -13.8223 222.542 -46.2691C232.165 -47.8581 241.935 -49.3516 251.844 -50.7462C324.268 -40.553 389.309 -25.0749 443.303 -5.63897C493.779 12.5305 534.52 34.1299 562.612 58.038C590.711 81.9513 605.998 108.028 605.998 135.189C605.998 162.35 590.711 188.427 562.612 212.34C534.52 236.248 493.779 257.848 443.303 276.017C389.309 295.453 324.267 310.931 251.844 321.125C241.935 319.73 232.165 318.236 222.542 316.647C410.212 284.201 539.772 215.141 539.772 135.189ZM607.523 135.189C607.523 50.6342 462.615 -21.7379 257.315 -51.5042C266.664 -52.7792 276.134 -53.9665 285.716 -55.0632C371.777 -45.2132 448.763 -28.0594 511.048 -5.63897C561.524 12.5305 602.265 34.1299 630.357 58.038C658.456 81.9513 673.744 108.028 673.744 135.189C673.744 162.35 658.456 188.427 630.357 212.34C602.265 236.248 561.524 257.848 511.048 276.017C448.763 298.438 371.777 315.592 285.716 325.442C276.134 324.345 266.664 323.158 257.315 321.883C462.615 292.116 607.523 219.744 607.523 135.189ZM251.844 -52.2853C260.79 -53.5429 269.848 -54.7199 279.011 -55.8138C270.048 -56.7948 260.989 -57.6969 251.841 -58.5177C242.693 -57.697 233.635 -56.795 224.673 -55.8142C233.838 -54.7201 242.897 -53.543 251.844 -52.2853ZM675.268 135.189C675.268 46.2195 514.833 -29.2618 292.421 -55.8138C301.384 -56.7948 310.443 -57.6969 319.592 -58.5177C419.344 -49.5673 508.449 -30.9626 578.8 -5.63897C629.276 12.5305 670.016 34.1299 698.109 58.038C726.207 81.9513 741.495 108.028 741.495 135.189C741.495 162.35 726.207 188.427 698.109 212.34C670.016 236.248 629.276 257.848 578.8 276.017C508.449 301.341 419.344 319.946 319.592 328.896C310.443 328.075 301.385 327.173 292.422 326.192C514.833 299.64 675.268 224.159 675.268 135.189ZM285.716 -56.5973C294.081 -57.5536 302.531 -58.4409 311.061 -59.2574C302.684 -59.9586 294.234 -60.5919 285.716 -61.1556C277.198 -60.5919 268.749 -59.9586 260.372 -59.2574C268.902 -58.4409 277.352 -57.5536 285.716 -56.5973ZM743.019 135.189C743.019 42.0003 567.007 -36.3906 328.123 -59.2574C336.497 -59.9583 344.944 -60.5915 353.459 -61.155C466.907 -53.646 568.313 -33.7956 646.534 -5.63897C697.01 12.5305 737.75 34.1299 765.843 58.038C793.941 81.9513 809.229 108.028 809.229 135.189C809.229 162.35 793.941 188.427 765.843 212.34C737.75 236.248 697.01 257.848 646.534 276.017C568.313 304.174 466.907 324.024 353.459 331.533C344.944 330.97 336.497 330.337 328.123 329.636C567.007 306.769 743.019 228.378 743.019 135.189ZM319.592 -60.048C326.976 -60.7099 334.419 -61.3189 341.917 -61.8739C334.52 -62.3057 327.075 -62.6853 319.583 -63.0114C312.095 -62.6854 304.653 -62.306 297.259 -61.8744C304.759 -61.3193 312.205 -60.7101 319.592 -60.048ZM810.753 135.189C810.753 38.0314 619.429 -43.0411 365.001 -61.8739C372.397 -62.3057 379.843 -62.6853 387.334 -63.0114C514.449 -57.4772 628.356 -36.5699 714.285 -5.63897C764.761 12.5305 805.501 34.1299 833.594 58.038C861.692 81.9513 876.98 108.028 876.98 135.189C876.98 162.35 861.692 188.427 833.594 212.34C805.501 236.248 764.761 257.848 714.285 276.017C628.356 306.948 514.449 327.855 387.334 333.39C379.843 333.064 372.398 332.684 365.001 332.252C619.429 313.419 810.753 232.347 810.753 135.189ZM353.459 -62.6825C358.884 -63.0412 364.337 -63.3718 369.816 -63.6737C364.385 -63.8479 358.933 -63.9942 353.459 -64.1121C347.985 -63.9942 342.532 -63.8479 337.102 -63.6737C342.581 -63.3718 348.034 -63.0412 353.459 -62.6825ZM421.206 -64.112C415.734 -63.9941 410.282 -63.8479 404.853 -63.6737C673.064 -48.8951 878.504 34.511 878.504 135.189C878.504 235.867 673.064 319.273 404.853 334.052C410.282 334.226 415.734 334.372 421.206 334.49C561.919 331.459 688.535 309.672 782.029 276.017C832.505 257.848 873.245 236.248 901.338 212.34C929.436 188.427 944.724 162.35 944.724 135.189C944.724 108.028 929.436 81.9513 901.338 58.038C873.245 34.1299 832.505 12.5305 782.029 -5.63897C688.535 -39.2932 561.919 -61.081 421.206 -64.112ZM946.248 135.189C946.248 237.874 732.536 322.592 456.484 334.854C610.14 334.718 749.147 312.241 849.78 276.017C900.256 257.848 940.996 236.248 969.089 212.34C997.188 188.427 1012.48 162.35 1012.48 135.189C1012.48 108.028 997.188 81.9513 969.089 58.038C940.996 34.1299 900.256 12.5305 849.78 -5.63897C749.147 -41.8631 610.14 -64.3393 456.484 -64.4752C732.536 -52.2134 946.248 32.5041 946.248 135.189ZM114.484 267.395C101.529 272.059 87.8975 276.479 73.6459 280.637C69.1549 279.123 64.7336 277.583 60.384 276.017C54.8608 274.029 49.4543 272 44.1681 269.931C140.994 235.646 201.036 187.942 201.036 135.189C201.036 82.4367 140.994 34.7321 44.168 0.447174C49.4542 -1.62163 54.8608 -3.65083 60.384 -5.63897C64.7335 -7.20462 69.1547 -8.74459 73.6456 -10.2582C87.8972 -6.10081 101.529 -1.68015 114.484 2.98306C161.895 20.0492 200.155 40.335 226.533 62.7842C252.918 85.2387 267.258 109.712 267.258 135.189C267.258 160.666 252.918 185.14 226.533 207.594C200.155 230.044 161.895 250.329 114.484 267.395Z" fill="url(#paint0_linear_549_667)"/>
<defs>
<linearGradient id="paint0_linear_549_667" x1="1014" y1="135" x2="-7.66778" y2="135" gradientUnits="userSpaceOnUse">
<stop stop-color="#F5EFCF"/>
<stop offset="1" stop-color="#5D4B41"/>
</linearGradient>
</defs>
</svg>
