<svg width="32" height="33" viewBox="0 0 32 33" fill="none" xmlns="http://www.w3.org/2000/svg">
<path d="M19.1699 9.0781V13.6539H12.8307V9.0781H11.9248V19.1768H12.8307V14.5463H19.1699V19.1768H20.0759V9.0781H19.1699Z" fill="white"/>
<path d="M10.6942 24.6382C9.9531 24.1767 9.13136 23.9249 8.33667 23.6813L8.20758 23.6417C7.26644 23.3524 6.30438 23.0096 5.79082 22.2883C5.37243 21.7008 5.31324 20.9273 5.33697 20.3821C5.34258 20.254 5.3959 19.8157 5.46351 19.2608C5.73827 16.9984 6.36944 11.7925 6.1281 8.28227C9.2801 6.72655 13.3753 3.6521 15.2384 2.25175L14.8728 2.03617C14.5254 1.83157 14.0899 1.85428 13.7666 2.09537C11.4507 3.82278 7.45471 6.71124 4.7308 7.81413C3.86135 8.16492 2.53218 8.33176 1.64538 7.64549C1.03335 7.16791 0.825427 6.17166 1.18999 5.48667L1.20199 5.45886C1.43976 5.08052 1.85458 4.81213 2.29568 4.70626C2.63907 4.62156 2.99624 4.63406 3.31055 4.76111C3.67486 4.90934 4.00626 5.1744 4.27949 5.53386C4.36037 5.64229 4.43767 5.75684 4.50834 5.88287C4.21495 6.03543 3.77972 6.21835 3.35775 6.2306C3.33657 6.23366 3.31693 6.23417 3.29907 6.23162C3.17865 6.23187 3.06105 6.21427 2.9442 6.18161C2.70158 6.11401 2.48524 5.93848 2.35615 5.72367C2.33319 5.68566 2.31303 5.64638 2.29594 5.60581C2.17271 5.65097 2.06174 5.72266 1.97296 5.82241L1.96709 5.82879C1.68391 6.13723 1.71784 6.60741 2.05562 6.85488C3.4649 7.88632 5.37217 6.54822 5.45866 6.48597L5.78879 6.24999L5.6278 5.87802C5.20992 4.89632 4.52262 4.16617 3.68991 3.8289C2.5082 3.34418 1.03973 3.82609 0.342742 4.93944L0.307538 5.00066C-0.299647 6.14641 0.0189946 7.65621 1.02774 8.44019C2.25053 9.39051 3.93789 9.22111 5.10634 8.74812C5.11986 8.74276 5.1344 8.73536 5.14818 8.73001C5.31528 12.1323 4.72519 16.9875 4.46369 19.1394C4.44303 19.3083 4.42517 19.4555 4.4096 19.5851C4.14326 19.3588 3.89886 19.08 3.74476 18.7424C3.37688 17.9378 3.56108 16.9334 3.78125 15.9734L3.81135 15.8432C3.99784 15.0327 4.19071 14.1944 4.16138 13.3217C4.12438 12.2203 3.70063 11.2549 2.99828 10.6725L2.40105 10.1776L2.19185 10.9243C2.07067 11.3562 1.86351 11.768 1.64385 12.2037C1.48619 12.5167 1.32317 12.8405 1.18898 13.1821C1.02749 13.5926 0.846861 14.2215 0.903243 14.8863C0.964727 15.6144 1.35097 16.279 1.93724 16.6767C1.97857 16.3948 2.09006 15.8621 2.14108 15.6233C2.15792 15.5445 2.13981 15.4659 2.09899 15.3963C1.99439 15.2177 1.92499 15.0164 1.90663 14.8013C1.8755 14.4337 1.95357 13.9898 2.12628 13.5507C2.24364 13.2523 2.38932 12.9629 2.54366 12.6566C2.64239 12.4606 2.74265 12.2616 2.83628 12.057C3.02686 12.4216 3.13835 12.867 3.15467 13.3556C3.17968 14.0967 3.00977 14.8355 2.82965 15.6175L2.79954 15.7483C2.54085 16.8765 2.32987 18.0694 2.82888 19.1611C3.11181 19.781 3.62792 20.33 4.33001 20.7673C4.35756 21.5952 4.57492 22.3172 4.97036 22.8728C5.66658 23.8504 6.80518 24.2642 7.91164 24.6043L8.04149 24.6441C8.80813 24.8791 9.53241 25.101 10.1613 25.4929C10.5761 25.7516 10.9062 26.0707 11.1267 26.418C10.9027 26.397 10.6805 26.3843 10.4613 26.3718C10.1187 26.3524 9.79519 26.3338 9.47807 26.2863C8.9066 26.2006 8.42111 25.9968 8.11114 25.7126C8.00935 25.6189 7.92337 25.5067 7.85474 25.3832C7.81596 25.3138 7.7578 25.2592 7.68228 25.2347C7.44706 25.1584 6.91386 24.9832 6.63808 24.8714L6.72916 25.2531C6.8386 25.7138 7.0876 26.1404 7.43048 26.4547C8.01522 26.9912 8.78568 27.2009 9.32883 27.2823C9.69161 27.3366 10.0536 27.3573 10.4036 27.3775C10.8907 27.4053 11.3507 27.4315 11.7856 27.5428L12.537 27.7344L12.4066 26.97C12.2535 26.071 11.6292 25.2212 10.6942 24.6382Z" fill="white"/>
<path d="M30.3878 12.1679C30.1684 11.7321 29.9613 11.3206 29.8401 10.8885L29.6306 10.1417L29.0337 10.6369C28.3316 11.2191 27.9078 12.1845 27.8706 13.2858C27.8412 14.1583 28.0341 14.9959 28.2206 15.8059L28.2507 15.9375C28.4709 16.8973 28.6548 17.9017 28.2869 18.7068C27.9877 19.363 27.3473 19.8013 26.8631 20.0534C26.7493 20.1126 26.3432 20.2855 25.8288 20.5044C23.7323 21.3976 18.9082 23.4541 15.9889 25.4183C13.0655 23.4664 8.35543 21.457 6.21089 20.5437L6.20707 20.968C6.20375 21.3711 6.44127 21.7372 6.81145 21.8964C9.46546 23.0383 13.965 25.0545 16.282 26.8623C17.0206 27.4399 17.8296 28.5073 17.6788 29.6186C17.5711 30.3875 16.8124 31.0656 16.0368 31.0924L16.0067 31.096C15.56 31.0791 15.1204 30.8541 14.8082 30.525C14.563 30.2699 14.3951 29.9543 14.3482 29.6186C14.2944 29.2293 14.3581 28.8096 14.5326 28.3932C14.5865 28.269 14.6469 28.1447 14.7207 28.0205C14.9995 28.1986 15.3756 28.4838 15.5973 28.843C15.6105 28.8598 15.6205 28.8767 15.6274 28.8935C15.6878 28.9976 15.7315 29.1083 15.7616 29.2257C15.8243 29.4696 15.7804 29.7449 15.659 29.964C15.6376 30.0028 15.6133 30.04 15.5871 30.0752C15.6878 30.1592 15.8052 30.2196 15.9363 30.2464L15.9447 30.2485C16.3532 30.3395 16.7435 30.075 16.7889 29.6589C16.9777 27.9225 14.8648 26.9398 14.7679 26.8959L14.3985 26.7281L14.1569 27.0536C13.5155 27.9065 13.2267 28.8665 13.3509 29.7563C13.5224 31.022 14.674 32.0527 15.9866 32.0996H16.057C17.353 32.0527 18.501 31.022 18.6758 29.7563C18.8873 28.222 17.8969 26.8454 16.9032 26.0699C16.8915 26.0609 16.878 26.052 16.8665 26.0431C19.7294 24.197 24.2292 22.2806 26.2235 21.431C26.3802 21.3644 26.5166 21.3063 26.6365 21.255C26.5738 21.5989 26.4544 21.9497 26.2393 22.252C25.726 22.973 24.7642 23.3156 23.8231 23.6049L23.6953 23.6439C22.9001 23.8878 22.0776 24.1396 21.3364 24.6016C20.4012 25.1843 19.7769 26.0341 19.6238 26.9334L19.4937 27.698L20.245 27.5062C20.6798 27.395 21.1397 27.3687 21.627 27.3409C21.977 27.3207 22.3388 27.3 22.7018 27.2457C23.1381 27.1804 23.7731 27.0222 24.3208 26.6411C24.9204 26.2237 25.3028 25.5568 25.3541 24.8501C25.0892 24.9555 24.5719 25.1251 24.34 25.2004C24.2632 25.2252 24.204 25.2803 24.1642 25.3504C24.0619 25.5303 23.9223 25.6913 23.745 25.8145C23.4424 26.0252 23.0189 26.1798 22.5523 26.2495C22.2352 26.2972 21.9117 26.3155 21.5694 26.3352C21.3502 26.3477 21.1277 26.3604 20.9038 26.3814C21.1242 26.0341 21.4543 25.715 21.8689 25.4566C22.4985 25.0642 23.2233 24.8422 23.9904 24.607L24.1188 24.5677C25.2252 24.2276 26.3638 23.8138 27.0598 22.836C27.4552 22.2808 27.6726 21.5593 27.7004 20.7328C28.4035 20.295 28.9201 19.7457 29.2033 19.1255C29.7018 18.0336 29.4911 16.8406 29.2324 15.7125L29.202 15.5801C29.0222 14.7987 28.8523 14.0606 28.877 13.3197C28.8936 12.8314 29.0051 12.3857 29.1954 12.0212C29.2893 12.2258 29.3895 12.4248 29.4883 12.6207C29.6426 12.9271 29.7883 13.2164 29.9057 13.5149C30.1171 14.0527 30.1835 14.5749 30.0924 14.9857C30.0623 15.1206 30.008 15.2513 29.9355 15.3724C29.8947 15.4405 29.8766 15.5184 29.8929 15.5959C29.9447 15.8378 30.0592 16.3873 30.1003 16.682L30.3855 16.412C30.7297 16.087 30.9749 15.6579 31.0756 15.2041C31.2476 14.4293 31.044 13.6575 30.843 13.1463C30.7085 12.8047 30.5455 12.4809 30.3878 12.1679Z" fill="white"/>
<path d="M31.6857 4.97198L31.6505 4.91101C30.9616 3.81221 29.495 3.3331 28.3115 3.81476C26.8772 4.39873 26.1802 5.94475 26.0054 7.19305C26.0034 7.20785 26.0019 7.22316 25.9998 7.23795C22.9698 5.68172 19.0606 2.74326 17.3278 1.44087C17.1918 1.33857 17.0734 1.24953 16.9688 1.17121C17.2982 1.0536 17.6617 0.981401 18.0312 1.01661C18.9118 1.10054 19.6894 1.76232 20.4107 2.43278L20.5086 2.52386C21.1171 3.09073 21.7465 3.677 22.5172 4.08774C23.4894 4.6064 24.5377 4.72222 25.3929 4.40511L26.1202 4.13544L25.5784 3.58107C25.2646 3.25988 25.0117 2.87464 24.7441 2.46671C24.5518 2.17357 24.353 1.87075 24.1244 1.58349C23.8497 1.23831 23.3953 0.767612 22.7912 0.483921C22.1302 0.173185 21.3612 0.17548 20.7237 0.484173C20.9472 0.660973 21.3528 1.02401 21.5342 1.18754C21.5939 1.24137 21.6709 1.2651 21.7516 1.26459C21.9587 1.26331 22.1679 1.30387 22.3631 1.39546C22.697 1.55236 23.0427 1.84166 23.3364 2.21082C23.5361 2.4616 23.7139 2.73254 23.902 3.01929C24.0224 3.20298 24.1448 3.38922 24.275 3.57291C23.864 3.55556 23.4223 3.42927 22.9912 3.19916C22.3368 2.85015 21.7822 2.33354 21.1949 1.78681L21.0967 1.69548C20.2489 0.90716 19.3213 0.127769 18.1263 0.0139866C17.448 -0.0505581 16.7145 0.121904 15.9848 0.510962C15.2542 0.12114 14.5199 -0.0515766 13.8413 0.0132236C12.6463 0.127262 11.7187 0.906143 10.871 1.69446L10.7717 1.78681C10.1849 2.33354 9.63057 2.84964 8.9767 3.19839C8.54529 3.42826 8.10368 3.55454 7.69268 3.57188C7.82279 3.38845 7.94525 3.20222 8.06541 3.01853C8.25369 2.73178 8.43151 2.46084 8.63127 2.21006C8.99099 1.75799 9.4104 1.4396 9.81145 1.31306C9.94335 1.27173 10.0837 1.25336 10.225 1.25566C10.3043 1.25668 10.3809 1.23372 10.4398 1.18065C10.6235 1.01508 11.0419 0.640816 11.2766 0.458149L10.9003 0.345896C10.4467 0.210428 9.95253 0.212727 9.50913 0.352533C8.75219 0.590815 8.18557 1.15284 7.8432 1.58272C7.61461 1.86973 7.41588 2.17306 7.22352 2.46594C6.9559 2.87388 6.70307 3.25911 6.38928 3.58031L5.84766 4.13494L6.57475 4.40434C7.42991 4.7212 8.47794 4.60563 9.45046 4.08723C10.2207 3.67623 10.8495 3.09048 11.458 2.52411L11.5567 2.43201C12.278 1.76156 13.0556 1.09978 13.937 1.01584C14.6549 0.947218 15.3547 1.2827 15.8149 1.57583C15.9231 1.64471 16.2759 1.91004 16.7226 2.24603C18.5439 3.615 22.7351 6.76292 25.8955 8.30946C25.6677 11.8168 26.2845 16.9027 26.5657 19.2158L26.9351 19.0069C27.2859 18.8084 27.4841 18.4199 27.4369 18.0196C27.0989 15.1502 26.5953 10.2453 27.0022 7.3349C27.1331 6.40652 27.653 5.172 28.6911 4.74722C29.4105 4.45588 30.3772 4.77376 30.7882 5.43197L30.8063 5.45646C31.015 5.85164 31.0402 6.34504 30.9111 6.77976C30.8129 7.11958 30.6236 7.42292 30.3562 7.63135C30.0458 7.87269 29.6503 8.0273 29.2026 8.08419C29.0681 8.09975 28.9304 8.10944 28.7857 8.10766C28.8008 7.77753 28.8597 7.30913 29.06 6.93768C29.0679 6.91753 29.0773 6.90043 29.0886 6.88615C29.1485 6.7818 29.2228 6.68868 29.3092 6.60373C29.4891 6.42744 29.7493 6.32769 29.9998 6.32335C30.0442 6.32258 30.0884 6.32488 30.1323 6.33024C30.1547 6.20115 30.1481 6.069 30.106 5.94221L30.1034 5.93404C29.9779 5.53452 29.5539 5.32889 29.1707 5.49778C27.5726 6.20217 27.7777 8.52325 27.7885 8.62938L27.8275 9.03323L28.2306 9.07966C29.2896 9.2085 30.2657 8.97864 30.9741 8.42605C31.9844 7.64487 32.3013 6.13227 31.6857 4.97198Z" fill="white"/>
</svg>
