<svg width="160" height="75" viewBox="0 0 160 75" fill="none" xmlns="http://www.w3.org/2000/svg">
<g clip-path="url(#clip0_664_6)">
<path fill-rule="evenodd" clip-rule="evenodd" d="M81.716 19.1079C74.1235 7.61196 61.3835 0.276855 46.7133 0.276855C23.2924 0.276855 4.0752 19.2366 4.0752 42.9149C4.0752 51.4081 6.94919 59.258 11.1529 65.9068C8.36474 60.1159 6.47734 53.5958 6.47734 46.6896C6.47734 22.9685 24.9653 4.13744 47.9143 4.13744C60.9975 4.13744 72.7508 10.0141 80.3433 19.7943L74.724 20.2661L87.035 30.6468L85.7481 14.6039L81.716 19.1079Z" fill="white"/>
<path d="M81.716 19.1079C74.1235 7.61196 61.3835 0.276855 46.7133 0.276855C23.2924 0.276855 4.0752 19.2366 4.0752 42.9149C4.0752 51.4081 6.94919 59.258 11.1529 65.9068C8.36474 60.1159 6.47734 53.5958 6.47734 46.6896C6.47734 22.9685 24.9653 4.13744 47.9143 4.13744C60.9975 4.13744 72.7508 10.0141 80.3433 19.7943L74.724 20.2661L87.035 30.6468L85.7481 14.6039L81.716 19.1079Z" stroke="white" stroke-width="0.0804289"/>
<path fill-rule="evenodd" clip-rule="evenodd" d="M75.8828 29.2734C70.1349 19.2359 59.7113 12.7158 47.5718 12.7158C29.3413 12.7158 14.4137 27.7721 14.4137 46.5603C14.4137 51.7077 15.1858 56.9838 17.159 61.3592C14.5424 56.512 13.041 50.8927 13.041 44.9731C13.041 26.0992 28.0973 11 46.5853 11C59.4968 11 70.5638 17.3056 75.8828 29.2734Z" fill="white"/>
<path d="M75.8828 29.2734C70.1349 19.2359 59.7113 12.7158 47.5718 12.7158C29.3413 12.7158 14.4137 27.7721 14.4137 46.5603C14.4137 51.7077 15.1858 56.9838 17.159 61.3592C14.5424 56.512 13.041 50.8927 13.041 44.9731C13.041 26.0992 28.0973 11 46.5853 11C59.4968 11 70.5638 17.3056 75.8828 29.2734Z" stroke="white" stroke-width="0.0804289"/>
<path fill-rule="evenodd" clip-rule="evenodd" d="M14.413 46.0464C14.413 46.0464 15.3567 46.4325 16.2575 46.5183C17.3299 46.6041 18.7883 46.3896 21.0618 45.8319C22.4344 45.4888 24.4076 44.5451 24.4076 44.5451C24.4076 44.5451 20.2039 45.5317 17.8875 45.4888C15.5711 45.4459 14.6274 44.9311 14.5845 44.588C14.5417 44.2448 15.0135 42.4432 17.4156 40.4271C19.8178 38.411 21.1476 37.21 24.9224 34.722C28.6972 32.2341 33.2012 29.403 35.0886 28.3306C36.976 27.2582 42.5095 24.2985 43.4961 23.7837C44.4827 23.269 45.169 22.9258 45.984 22.5827C47.228 22.0679 53.1905 19.7945 54.9921 19.3655C56.7079 18.9365 58.2521 18.7221 60.4398 18.3789C62.6275 18.0357 64.7722 18.2931 64.9438 18.8079C65.1154 19.3226 64.043 20.9097 63.0993 21.9821C62.0269 23.269 59.1958 26.0143 57.4371 27.4298C55.6355 28.8883 51.8178 31.9767 50.8741 32.6631C49.9304 33.3494 57.0511 29.6175 61.7696 25.2851C63.9143 23.3119 67.9465 19.4513 66.1449 17.6926C64.1717 15.7623 58.5095 17.4352 57.1368 17.8213C55.7642 18.2073 51.346 19.7516 48.9438 20.7381C46.5417 21.7247 43.11 23.2261 41.6087 23.8266C40.1073 24.4271 34.4023 27.1296 32.9438 27.8588C31.4854 28.5451 27.6677 30.8186 26.4237 31.5907C25.1797 32.3199 19.9894 35.966 18.102 37.5531C16.2146 39.1403 14.7561 41.0277 14.7561 41.0277C14.7561 41.0277 13.6408 42.2716 13.5122 43.9445C13.4693 45.6175 14.413 46.0464 14.413 46.0464Z" fill="white"/>
<path d="M14.413 46.0464C14.413 46.0464 15.3567 46.4325 16.2575 46.5183C17.3299 46.6041 18.7883 46.3896 21.0618 45.8319C22.4344 45.4888 24.4076 44.5451 24.4076 44.5451C24.4076 44.5451 20.2039 45.5317 17.8875 45.4888C15.5711 45.4459 14.6274 44.9311 14.5845 44.588C14.5417 44.2448 15.0135 42.4432 17.4156 40.4271C19.8178 38.411 21.1476 37.21 24.9224 34.722C28.6972 32.2341 33.2012 29.403 35.0886 28.3306C36.976 27.2582 42.5095 24.2985 43.4961 23.7837C44.4827 23.269 45.169 22.9258 45.984 22.5827C47.228 22.0679 53.1905 19.7945 54.9921 19.3655C56.7079 18.9365 58.2521 18.7221 60.4398 18.3789C62.6275 18.0357 64.7722 18.2931 64.9438 18.8079C65.1154 19.3226 64.043 20.9097 63.0993 21.9821C62.0269 23.269 59.1958 26.0143 57.4371 27.4298C55.6355 28.8883 51.8178 31.9767 50.8741 32.6631C49.9304 33.3494 57.0511 29.6175 61.7696 25.2851C63.9143 23.3119 67.9465 19.4513 66.1449 17.6926C64.1717 15.7623 58.5095 17.4352 57.1368 17.8213C55.7642 18.2073 51.346 19.7516 48.9438 20.7381C46.5417 21.7247 43.11 23.2261 41.6087 23.8266C40.1073 24.4271 34.4023 27.1296 32.9438 27.8588C31.4854 28.5451 27.6677 30.8186 26.4237 31.5907C25.1797 32.3199 19.9894 35.966 18.102 37.5531C16.2146 39.1403 14.7561 41.0277 14.7561 41.0277C14.7561 41.0277 13.6408 42.2716 13.5122 43.9445C13.4693 45.6175 14.413 46.0464 14.413 46.0464Z" stroke="white" stroke-width="0.0804289"/>
<path fill-rule="evenodd" clip-rule="evenodd" d="M22.4336 23.9119C22.4336 23.9119 22.6481 24.8984 23.892 25.4132C25.136 25.9279 27.7955 25.8421 29.5542 25.4561C31.3129 25.07 32.2995 24.8127 33.7151 24.4266C35.1306 24.0405 36.8465 23.3542 38.3907 22.7108C39.9349 22.0674 41.951 20.566 42.4229 20.18C42.8947 19.8368 45.0824 17.7349 45.5113 17.2631C45.9403 16.7912 46.8411 15.5473 47.0985 14.7751C47.3559 14.0459 46.884 12.6304 46.884 12.6304C46.884 12.6304 47.313 13.9172 46.5408 15.2041C45.7687 16.491 43.0663 18.4212 42.4658 18.8073C41.8223 19.1505 37.4041 21.5526 36.4175 22.0674C35.4309 22.5821 32.4282 24.0834 31.313 24.4695C30.2406 24.8555 29.0824 25.0271 28.4818 25.1129C27.8384 25.1558 25.136 25.5419 24.321 24.8556C23.506 24.1692 23.4202 23.5687 23.6347 23.1397C23.8491 22.7537 23.1199 22.625 22.9912 22.7966C22.8197 23.0539 22.4336 23.9119 22.4336 23.9119Z" fill="white"/>
<path d="M22.4336 23.9119C22.4336 23.9119 22.6481 24.8984 23.892 25.4132C25.136 25.9279 27.7955 25.8421 29.5542 25.4561C31.3129 25.07 32.2995 24.8127 33.7151 24.4266C35.1306 24.0405 36.8465 23.3542 38.3907 22.7108C39.9349 22.0674 41.951 20.566 42.4229 20.18C42.8947 19.8368 45.0824 17.7349 45.5113 17.2631C45.9403 16.7912 46.8411 15.5473 47.0985 14.7751C47.3559 14.0459 46.884 12.6304 46.884 12.6304C46.884 12.6304 47.313 13.9172 46.5408 15.2041C45.7687 16.491 43.0663 18.4212 42.4658 18.8073C41.8223 19.1505 37.4041 21.5526 36.4175 22.0674C35.4309 22.5821 32.4282 24.0834 31.313 24.4695C30.2406 24.8555 29.0824 25.0271 28.4818 25.1129C27.8384 25.1558 25.136 25.5419 24.321 24.8556C23.506 24.1692 23.4202 23.5687 23.6347 23.1397C23.8491 22.7537 23.1199 22.625 22.9912 22.7966C22.8197 23.0539 22.4336 23.9119 22.4336 23.9119Z" stroke="white" stroke-width="0.0804289"/>
<path fill-rule="evenodd" clip-rule="evenodd" d="M32.3858 16.105C32.3858 16.105 31.8282 18.3785 31.5708 20.4804C31.3135 22.5822 31.1848 23.7404 31.2277 25.5849C31.2706 27.4294 31.485 28.6305 31.5708 29.3168C31.6995 30.0031 32.4716 32.534 32.4716 32.534C32.4716 32.534 30.1124 29.66 29.6834 26.7431C29.3403 24.2551 29.4261 22.8825 29.855 21.1667C30.3698 19.1506 31.7853 15.8477 31.7853 15.8477L32.3858 16.105Z" fill="white"/>
<path d="M32.3858 16.105C32.3858 16.105 31.8282 18.3785 31.5708 20.4804C31.3135 22.5822 31.1848 23.7404 31.2277 25.5849C31.2706 27.4294 31.485 28.6305 31.5708 29.3168C31.6995 30.0031 32.4716 32.534 32.4716 32.534C32.4716 32.534 30.1124 29.66 29.6834 26.7431C29.3403 24.2551 29.4261 22.8825 29.855 21.1667C30.3698 19.1506 31.7853 15.8477 31.7853 15.8477L32.3858 16.105Z" stroke="white" stroke-width="0.0804289"/>
<path fill-rule="evenodd" clip-rule="evenodd" d="M32.8151 15.8047C32.8151 15.8047 37.4907 17.735 39.2494 18.6358C41.0081 19.5366 42.1663 20.3945 42.9384 21.0809C43.7534 21.7243 44.5255 22.3677 45.169 23.1398C45.8124 23.912 46.4558 24.8128 46.4558 24.8128C46.4558 24.8128 46.1985 22.9683 45.0403 21.4669C43.8821 19.9656 42.3808 18.55 40.8794 17.6921C39.3781 16.8342 37.791 16.3624 36.7186 16.1479C35.6462 15.9334 33.5872 15.6332 33.0296 15.5903C32.4719 15.5903 32.043 15.5474 32.043 15.5474L32.8151 15.8047Z" fill="white"/>
<path d="M32.8151 15.8047C32.8151 15.8047 37.4907 17.735 39.2494 18.6358C41.0081 19.5366 42.1663 20.3945 42.9384 21.0809C43.7534 21.7243 44.5255 22.3677 45.169 23.1398C45.8124 23.912 46.4558 24.8128 46.4558 24.8128C46.4558 24.8128 46.1985 22.9683 45.0403 21.4669C43.8821 19.9656 42.3808 18.55 40.8794 17.6921C39.3781 16.8342 37.791 16.3624 36.7186 16.1479C35.6462 15.9334 33.5872 15.6332 33.0296 15.5903C32.4719 15.5903 32.043 15.5474 32.043 15.5474L32.8151 15.8047Z" stroke="white" stroke-width="0.0804289"/>
<path fill-rule="evenodd" clip-rule="evenodd" d="M33.931 15.032C33.931 15.032 38.9927 15.032 42.2098 15.5897C45.427 16.1473 46.1991 16.4905 47.6576 17.0481C49.0731 17.6057 52.3332 19.3216 53.5342 20.1795C54.7353 21.0374 55.5503 21.7666 56.5369 22.6674C57.5235 23.5682 58.6817 24.8122 59.4109 25.5414C60.0972 26.2706 61.2554 27.8148 61.5557 28.2009C61.856 28.587 62.1991 29.1446 62.1991 29.1446C62.1991 29.1446 61.427 27.5146 60.7836 26.3135C58.5101 22.024 54.049 18.721 53.234 18.1205C52.3761 17.4771 49.8881 15.9757 46.4994 15.032C44.3546 14.4315 42.2527 14.2599 41.4377 14.1741C40.6227 14.1312 37.4913 14.0025 36.3332 14.1741C35.561 14.2599 32.9873 14.3457 32.9873 14.3457L33.931 15.032Z" fill="white"/>
<path d="M33.931 15.032C33.931 15.032 38.9927 15.032 42.2098 15.5897C45.427 16.1473 46.1991 16.4905 47.6576 17.0481C49.0731 17.6057 52.3332 19.3216 53.5342 20.1795C54.7353 21.0374 55.5503 21.7666 56.5369 22.6674C57.5235 23.5682 58.6817 24.8122 59.4109 25.5414C60.0972 26.2706 61.2554 27.8148 61.5557 28.2009C61.856 28.587 62.1991 29.1446 62.1991 29.1446C62.1991 29.1446 61.427 27.5146 60.7836 26.3135C58.5101 22.024 54.049 18.721 53.234 18.1205C52.3761 17.4771 49.8881 15.9757 46.4994 15.032C44.3546 14.4315 42.2527 14.2599 41.4377 14.1741C40.6227 14.1312 37.4913 14.0025 36.3332 14.1741C35.561 14.2599 32.9873 14.3457 32.9873 14.3457L33.931 15.032Z" stroke="white" stroke-width="0.0804289"/>
<path fill-rule="evenodd" clip-rule="evenodd" d="M25.9512 20.8234C25.7367 21.2095 23.7635 24.1692 22.9485 26.0995C22.1335 28.0298 21.4042 30.7751 21.2327 32.2336C21.0611 33.692 20.8895 35.8797 21.1469 37.81C21.4042 39.7403 21.7474 41.1558 22.1764 42.7858C22.6053 44.4159 23.0772 45.5311 23.5061 46.389C23.9351 47.247 24.6214 48.1478 24.6214 48.1478C24.6214 48.1478 24.0638 46.9467 23.7206 45.5311C23.3774 44.0727 22.9485 41.6706 22.8198 40.5124C22.6911 39.3542 22.4766 36.4802 22.4766 34.936C22.4766 33.3918 23.4203 29.5741 23.7635 28.4588C24.1067 27.3435 25.2219 24.6411 26.3372 22.8824C27.4525 21.1237 29.4257 18.2926 30.112 17.306C30.7983 16.3194 26.852 19.4508 26.7233 19.6652C26.423 19.9655 26.1656 20.3945 25.9512 20.8234Z" fill="white"/>
<path d="M25.9512 20.8234C25.7367 21.2095 23.7635 24.1692 22.9485 26.0995C22.1335 28.0298 21.4042 30.7751 21.2327 32.2336C21.0611 33.692 20.8895 35.8797 21.1469 37.81C21.4042 39.7403 21.7474 41.1558 22.1764 42.7858C22.6053 44.4159 23.0772 45.5311 23.5061 46.3891C23.9351 47.247 24.6214 48.1478 24.6214 48.1478C24.6214 48.1478 24.0638 46.9467 23.7206 45.5311C23.3774 44.0727 22.9485 41.6706 22.8198 40.5124C22.6911 39.3542 22.4766 36.4802 22.4766 34.936C22.4766 33.3918 23.4203 29.5741 23.7635 28.4588C24.1067 27.3435 25.2219 24.6411 26.3372 22.8824C27.4525 21.1237 29.4257 18.2926 30.112 17.306C30.7983 16.3194 26.852 19.4508 26.7233 19.6652C26.423 19.9655 26.1656 20.3945 25.9512 20.8234Z" stroke="white" stroke-width="0.0804289"/>
<path fill-rule="evenodd" clip-rule="evenodd" d="M33.8017 61.1022C33.8017 61.1022 42.1663 69.0807 55.6784 69.4668C63.7856 69.7241 68.9331 67.322 71.7642 65.3488C69.791 65.692 66.6596 65.9922 61.6409 66.078C49.0296 66.3354 36.3754 58.8287 36.3754 58.8287L40.6221 56.9413L25.7803 50.8931L31.8714 65.8207L33.8017 61.1022Z" fill="white"/>
<path d="M33.8017 61.1022C33.8017 61.1022 42.1663 69.0807 55.6784 69.4668C63.7856 69.7241 68.9331 67.322 71.7642 65.3488C69.791 65.692 66.6596 65.9922 61.6409 66.078C49.0296 66.3354 36.3754 58.8287 36.3754 58.8287L40.6221 56.9413L25.7803 50.8931L31.8714 65.8207L33.8017 61.1022Z" stroke="white" stroke-width="0.0804289"/>
<path fill-rule="evenodd" clip-rule="evenodd" d="M41.3946 38.9257H37.0193V40.9418H38.9495V44.2018C38.8209 44.2447 38.6493 44.2876 38.4348 44.3305C38.2203 44.3734 37.963 44.3734 37.6198 44.3734C36.5045 44.3734 35.6037 43.9873 34.8745 43.2152C34.1453 42.4431 33.8021 41.2849 33.7592 39.7407C33.8021 38.1536 34.1882 36.9525 34.9603 36.1804C35.7324 35.4083 36.719 35.0651 37.9201 35.0651C38.5206 35.0651 38.9924 35.108 39.4214 35.1938C39.8503 35.2796 40.1935 35.4083 40.4938 35.537L41.0514 33.4351C40.7083 33.2635 40.2793 33.1348 39.7646 33.049C39.2498 32.9632 38.6064 32.8774 37.963 32.8774C36.6761 32.8774 35.5179 33.1348 34.4884 33.6496C33.4589 34.1643 32.6439 34.9364 32.0434 35.9659C31.4428 36.9954 31.1426 38.2394 31.1426 39.7407C31.1426 40.8131 31.3142 41.7568 31.6144 42.6576C31.9147 43.5155 32.3865 44.2447 32.9442 44.8024C33.5018 45.36 34.1882 45.7461 34.9603 46.0463C35.7324 46.3037 36.6332 46.4324 37.6627 46.4324C38.4348 46.4324 39.164 46.3466 39.8075 46.2179C40.4938 46.0892 41.0085 45.9176 41.4375 45.7889V38.9257H41.3946Z" fill="white"/>
<path d="M46.1558 32.4053H43.582V46.3034H46.1558V32.4053Z" fill="white"/>
<path fill-rule="evenodd" clip-rule="evenodd" d="M54.2626 41.4987C54.2626 42.3995 54.091 43.1288 53.7907 43.7293C53.4905 44.3298 53.0186 44.6301 52.4181 44.673C51.7747 44.6301 51.3028 44.3298 51.0025 43.7293C50.6594 43.1288 50.5307 42.3995 50.5307 41.5416C50.5307 41.0269 50.5736 40.555 50.7023 40.0832C50.831 39.6113 51.0454 39.2253 51.3028 38.8821C51.6031 38.5819 51.9462 38.4103 52.4181 38.4103C52.847 38.4103 53.1902 38.5819 53.4905 38.8821C53.7478 39.1824 53.9623 39.5684 54.091 40.0403C54.2197 40.4693 54.2626 40.984 54.2626 41.4987ZM52.461 36.48C51.1312 36.48 50.0588 36.9089 49.2009 37.8097C48.343 38.6676 47.9141 39.9116 47.9141 41.5416C47.957 43.1288 48.343 44.3298 49.158 45.1877C49.973 46.0457 51.0454 46.4746 52.3752 46.4746C53.1044 46.4746 53.8336 46.303 54.4771 45.9599C55.1634 45.6167 55.721 45.0591 56.15 44.3298C56.5789 43.6006 56.8363 42.614 56.8363 41.3701C56.8363 39.8687 56.4074 38.7105 55.6352 37.8097C54.906 36.9947 53.8336 36.5229 52.461 36.48Z" fill="white"/>
<path fill-rule="evenodd" clip-rule="evenodd" d="M61.2972 40.5988C61.2972 39.9553 61.5117 39.4835 61.8549 39.0974C62.198 38.7114 62.5841 38.5398 63.0559 38.5398C63.6994 38.5398 64.2141 38.8401 64.5144 39.3977C64.8575 39.9553 64.9862 40.6417 64.9862 41.4567C64.9862 42.4004 64.8146 43.1296 64.4715 43.6872C64.1283 44.202 63.6565 44.5023 63.013 44.5023C62.4983 44.5023 62.0693 44.2878 61.7691 43.9017C61.4688 43.5157 61.2972 43.0438 61.2972 42.4862V40.5988ZM61.2972 37.8535V32.4058H58.7235V43.5586C58.7235 44.0733 58.7235 44.5452 58.6806 45.0599C58.6806 45.5317 58.6377 45.9607 58.6377 46.3468H60.8254L60.9541 45.017H60.9969C61.2972 45.5746 61.6833 45.9607 62.1122 46.1752C62.5412 46.4325 63.0559 46.5183 63.5707 46.5183C64.257 46.5183 64.9004 46.3468 65.4581 45.9607C66.0586 45.5746 66.5305 45.017 66.9165 44.2449C67.3026 43.4728 67.4742 42.5291 67.5171 41.328C67.5171 39.8696 67.1739 38.7114 66.5305 37.8106C65.887 36.9527 65.0291 36.4808 63.9567 36.4808C63.3562 36.4808 62.7986 36.6095 62.3696 36.8669C61.9406 37.0814 61.5975 37.4245 61.2972 37.8535Z" fill="white"/>
<path fill-rule="evenodd" clip-rule="evenodd" d="M74.0378 43.0435C74.0378 43.4296 73.952 43.7728 73.7375 44.0301C73.523 44.2875 73.3515 44.4591 73.0941 44.5449C72.8367 44.6736 72.6222 44.7165 72.4078 44.7165C72.0646 44.7165 71.8072 44.6307 71.5499 44.4162C71.3354 44.2017 71.2067 43.8585 71.1638 43.4296C71.1638 42.9577 71.3354 42.6146 71.5927 42.3572C71.8501 42.0998 72.2362 41.9283 72.6651 41.8425C73.0941 41.7567 73.523 41.7138 73.9949 41.7138L74.0378 43.0435ZM76.5686 40.5127C76.5686 39.7835 76.4828 39.1401 76.2255 38.5395C76.011 37.939 75.6249 37.4671 75.0673 37.0811C74.5096 36.695 73.7375 36.5234 72.7509 36.5234C71.9788 36.5234 71.3354 36.6092 70.7777 36.7808C70.2201 36.9524 69.7482 37.124 69.448 37.3384L69.9198 39.0114C70.2201 38.7969 70.6062 38.6682 70.9922 38.5395C71.4212 38.4108 71.8501 38.3679 72.2791 38.3679C72.9654 38.3679 73.4372 38.5395 73.6517 38.8398C73.9091 39.1401 73.9949 39.569 73.9949 40.0409C72.4507 40.0409 71.1638 40.3411 70.2201 40.9417C69.2764 41.5422 68.7616 42.443 68.7188 43.687C68.7188 44.502 68.9761 45.1454 69.4909 45.703C70.0056 46.2607 70.6919 46.5181 71.5927 46.561C72.1504 46.561 72.6222 46.4752 73.0512 46.2607C73.4801 46.0462 73.8662 45.7459 74.1236 45.3599H74.1665L74.3381 46.3465H76.6544C76.6115 46.0462 76.5686 45.703 76.5257 45.317C76.4828 44.9309 76.4828 44.502 76.4828 44.073V40.5127H76.5686Z" fill="white"/>
<path d="M81.3735 32.4058H78.7998V46.3039H81.3735V32.4058Z" fill="white"/>
<path fill-rule="evenodd" clip-rule="evenodd" d="M90.0806 39.0544V35.0222C90.1664 34.9793 90.3379 34.9793 90.5524 34.9364C90.7669 34.9364 90.9814 34.8935 91.2816 34.8935C91.6248 34.8935 91.9251 34.9364 92.2682 35.0222C92.6114 35.108 92.9117 35.3225 93.1261 35.6227C93.3406 35.923 93.4693 36.352 93.5122 36.9096C93.5122 37.553 93.2977 38.0678 92.8688 38.4538C92.4398 38.8399 91.8822 39.0115 91.1529 39.0544H90.0806ZM93.7267 39.9981C94.3701 39.7407 94.8849 39.3546 95.3138 38.7541C95.7428 38.1965 95.9572 37.5101 96.0001 36.6522C96.0001 35.7514 95.7857 35.0651 95.4425 34.5504C95.0993 34.0356 94.6275 33.6496 94.1127 33.4351C93.5551 33.1777 92.9975 33.049 92.4398 32.9632C91.8822 32.8774 91.3674 32.8774 90.9385 32.8774C90.295 32.8774 89.6516 32.9203 89.0511 32.9632C88.4505 33.0061 87.9358 33.0919 87.5068 33.1777V46.3037H90.0377V40.8989H90.8956C91.4961 40.8989 91.968 41.0276 92.2682 41.3707C92.5685 41.7139 92.8259 42.3144 92.9974 43.1294C93.169 43.9444 93.2977 44.6308 93.4693 45.1455C93.598 45.7032 93.7267 46.0463 93.8554 46.2608H96.472C96.3433 46.0034 96.1717 45.4887 96.043 44.8452C95.8714 44.1589 95.6999 43.4297 95.4854 42.6147C95.3138 41.9284 95.0993 41.3707 94.842 40.9418C94.5417 40.5128 94.1985 40.1697 93.7267 39.9981Z" fill="white"/>
<path fill-rule="evenodd" clip-rule="evenodd" d="M99.9459 40.5128C99.9459 40.1696 100.032 39.8693 100.16 39.5262C100.289 39.183 100.504 38.8828 100.761 38.6683C101.018 38.4109 101.361 38.3251 101.748 38.2822C102.177 38.2822 102.477 38.4109 102.734 38.6254C102.992 38.8399 103.163 39.1401 103.249 39.4833C103.335 39.8264 103.378 40.1696 103.378 40.5128H99.9459ZM104.922 44.2018C104.579 44.3305 104.235 44.4163 103.849 44.502C103.463 44.5878 103.034 44.6307 102.563 44.6307C101.833 44.6307 101.233 44.4591 100.761 44.116C100.246 43.7728 99.9888 43.1723 99.9459 42.3573H105.694C105.737 42.2286 105.737 42.057 105.737 41.8854C105.737 41.7138 105.737 41.5423 105.737 41.3278C105.737 39.7836 105.351 38.5825 104.664 37.7675C103.978 36.9525 103.034 36.5664 101.876 36.5664C100.933 36.5664 100.118 36.8238 99.4741 37.2956C98.8307 37.7675 98.3159 38.368 97.9727 39.183C97.6296 39.9551 97.458 40.813 97.458 41.7567C97.458 43.2581 97.887 44.4592 98.6591 45.3171C99.4312 46.175 100.632 46.6039 102.134 46.6468C102.734 46.6468 103.292 46.6039 103.849 46.5181C104.364 46.4323 104.836 46.3036 105.265 46.1321L104.922 44.2018Z" fill="white"/>
<path fill-rule="evenodd" clip-rule="evenodd" d="M113.715 44.1587C113.501 44.2445 113.286 44.3302 113.029 44.3731C112.771 44.416 112.471 44.4589 112.171 44.4589C111.399 44.4589 110.798 44.2016 110.326 43.6868C109.855 43.1721 109.597 42.4429 109.597 41.4992C109.597 40.6412 109.812 39.912 110.283 39.3544C110.712 38.7967 111.356 38.4965 112.171 38.4965C112.514 38.4965 112.814 38.5394 113.072 38.5823C113.329 38.6252 113.501 38.711 113.672 38.7967L114.101 36.8236C113.887 36.7378 113.586 36.652 113.243 36.5662C112.9 36.4804 112.514 36.4375 112.085 36.4375C111.013 36.4375 110.112 36.6949 109.34 37.1238C108.568 37.5528 108.01 38.1533 107.624 38.9254C107.238 39.6975 107.023 40.5555 107.023 41.542C107.023 43.0863 107.452 44.2874 108.31 45.1453C109.125 46.0032 110.283 46.4321 111.699 46.4321C112.214 46.4321 112.686 46.3892 113.072 46.3034C113.501 46.2176 113.801 46.1319 114.015 46.0032L113.715 44.1587Z" fill="white"/>
<path fill-rule="evenodd" clip-rule="evenodd" d="M120.965 36.6948L119.764 41.7136C119.678 42.0139 119.635 42.3141 119.549 42.6573C119.463 42.9576 119.421 43.2578 119.378 43.5152H119.335C119.292 43.2578 119.206 42.9575 119.12 42.6144C119.035 42.3141 118.949 42.0139 118.863 41.7136L117.447 36.6948H114.659L117.876 45.5742C117.962 45.7458 117.962 45.9173 117.962 46.0031C117.962 46.1318 117.833 46.3892 117.619 46.7323C117.404 47.0755 117.104 47.4616 116.675 47.7618C116.461 47.9334 116.203 48.0621 115.989 48.1908C115.774 48.3195 115.517 48.4053 115.346 48.4911L115.989 50.6358C116.289 50.5929 116.675 50.4642 117.104 50.2498C117.533 50.0353 118.005 49.735 118.477 49.2632C118.992 48.7484 119.506 48.0192 119.978 47.0755C120.45 46.1318 120.922 44.8878 121.48 43.3865L123.667 36.6948H120.965Z" fill="white"/>
<path fill-rule="evenodd" clip-rule="evenodd" d="M131.045 44.1587C130.831 44.2445 130.616 44.3302 130.359 44.3731C130.102 44.416 129.801 44.4589 129.501 44.4589C128.772 44.4589 128.128 44.2016 127.657 43.6868C127.185 43.1721 126.927 42.4429 126.927 41.4992C126.927 40.6412 127.142 39.912 127.614 39.3544C128.043 38.7967 128.686 38.4965 129.501 38.4965C129.844 38.4965 130.144 38.5394 130.402 38.5823C130.659 38.6252 130.831 38.711 131.002 38.7967L131.431 36.8236C131.217 36.7378 130.917 36.652 130.573 36.5662C130.23 36.4804 129.844 36.4375 129.415 36.4375C128.343 36.4375 127.442 36.6949 126.713 37.1238C125.941 37.5528 125.383 38.1533 124.997 38.9254C124.611 39.6975 124.396 40.5555 124.396 41.542C124.396 43.0863 124.825 44.2874 125.683 45.1453C126.498 46.0032 127.657 46.4321 129.072 46.4321C129.587 46.4321 130.059 46.3892 130.445 46.3034C130.874 46.2176 131.174 46.1319 131.388 46.0032L131.045 44.1587Z" fill="white"/>
<path d="M135.507 32.4053H132.934V46.3034H135.507V32.4053Z" fill="white"/>
<path fill-rule="evenodd" clip-rule="evenodd" d="M139.754 40.5118C139.796 40.1686 139.839 39.8684 139.968 39.5252C140.097 39.182 140.311 38.8818 140.569 38.6673C140.826 38.4099 141.169 38.3241 141.555 38.2812C141.984 38.2812 142.284 38.4099 142.542 38.6244C142.799 38.8389 142.971 39.1391 143.057 39.4823C143.142 39.8255 143.185 40.1686 143.185 40.5118H139.754ZM144.729 44.2008C144.386 44.3295 144.043 44.4153 143.657 44.5011C143.271 44.5869 142.842 44.6298 142.37 44.6298C141.641 44.6298 141.04 44.4582 140.569 44.115C140.054 43.7718 139.796 43.1713 139.754 42.3563H145.502C145.544 42.2276 145.544 42.056 145.544 41.8845C145.544 41.7129 145.544 41.5413 145.544 41.3268C145.544 39.7826 145.158 38.5815 144.472 37.7665C143.786 36.9515 142.842 36.5654 141.684 36.5654C140.74 36.5654 139.925 36.8228 139.282 37.2946C138.638 37.7665 138.124 38.367 137.78 39.182C137.437 39.9542 137.266 40.8121 137.266 41.7558C137.266 43.2571 137.695 44.4582 138.467 45.3161C139.239 46.174 140.44 46.6029 141.898 46.6458C142.499 46.6458 143.057 46.6029 143.614 46.5172C144.172 46.4314 144.601 46.3027 145.03 46.1311L144.729 44.2008Z" fill="white"/>
<path fill-rule="evenodd" clip-rule="evenodd" d="M153.052 42.3999C153.009 43.172 152.837 43.6868 152.451 44.0299C152.108 44.3302 151.722 44.5018 151.293 44.5018C150.692 44.5018 150.221 44.2444 149.877 43.6868C149.534 43.172 149.363 42.4428 149.363 41.5849C149.363 40.727 149.534 39.9978 149.877 39.4401C150.221 38.8825 150.692 38.5822 151.336 38.5393C151.765 38.5393 152.151 38.7109 152.494 39.0541C152.837 39.3972 153.009 39.912 153.009 40.6412L153.052 42.3999ZM155.625 32.4053H153.052V37.5956H153.009C152.837 37.2525 152.537 36.9951 152.108 36.7806C151.722 36.5661 151.25 36.4803 150.65 36.4803C149.963 36.4803 149.32 36.6948 148.719 37.0809C148.119 37.4669 147.647 38.0246 147.304 38.7967C146.961 39.5688 146.746 40.4696 146.746 41.5849C146.746 43.0862 147.132 44.2444 147.776 45.1452C148.462 46.046 149.363 46.475 150.478 46.5179C151.079 46.5179 151.593 46.3892 152.108 46.0889C152.58 45.8315 152.966 45.4455 153.223 44.9736H153.266L153.395 46.3463H155.625C155.625 45.9602 155.583 45.5742 155.583 45.0594C155.583 44.5876 155.54 44.0728 155.54 43.601V32.4053H155.625Z" fill="white"/>
<path fill-rule="evenodd" clip-rule="evenodd" d="M74.1666 48.6635C73.8663 48.4919 73.4802 48.3633 72.9655 48.2346C72.4936 48.1059 71.936 48.063 71.2926 48.063C69.8341 48.1059 68.7188 48.449 67.9038 49.1783C67.0888 49.9075 66.7028 50.8083 66.7028 51.9236C66.7028 52.7815 67.003 53.5536 67.5607 54.1541C68.1183 54.7976 68.9333 55.3123 69.9199 55.7413C70.6491 56.0415 71.2068 56.3847 71.5499 56.7279C71.8931 57.071 72.0647 57.4571 72.0647 57.9289C72.0647 58.4437 71.8931 58.8297 71.507 59.13C71.121 59.4303 70.6062 59.6018 69.877 59.6018C69.3194 59.6018 68.8046 59.5161 68.2899 59.3874C67.7751 59.2587 67.3462 59.0871 67.003 58.8726L66.4883 61.0174C66.8314 61.2319 67.2604 61.4035 67.8609 61.5321C68.4615 61.6608 69.062 61.7466 69.7483 61.7466C71.2926 61.7037 72.4936 61.3606 73.3516 60.5884C74.1666 59.8592 74.5955 58.9155 74.5955 57.7144C74.5955 56.8565 74.3381 56.0844 73.8663 55.441C73.3516 54.7976 72.5794 54.2399 71.507 53.7681C70.692 53.4249 70.1344 53.0817 69.7483 52.7815C69.4052 52.4812 69.1907 52.0952 69.2336 51.6233C69.2336 51.2372 69.4052 50.8941 69.7054 50.5938C70.0057 50.2936 70.5205 50.1649 71.2068 50.122C71.7644 50.122 72.2363 50.2078 72.6223 50.3364C73.0084 50.4651 73.3516 50.5938 73.566 50.7225L74.1666 48.6635Z" fill="white"/>
<path fill-rule="evenodd" clip-rule="evenodd" d="M76.869 51.923H75.625V53.8104H76.869V58.2715C76.869 58.6576 76.869 59.1294 76.9977 59.6442C77.0834 60.2018 77.3408 60.6736 77.7269 61.0597C78.1129 61.4887 78.7993 61.7031 79.7001 61.7031C80.0861 61.7031 80.4293 61.6602 80.6867 61.6602C80.9869 61.6173 81.2014 61.5744 81.373 61.4887V59.5584C81.2443 59.6013 81.1156 59.6013 80.9869 59.6013C80.8582 59.6013 80.7296 59.6442 80.5151 59.6442C80.129 59.6442 79.8288 59.5155 79.6572 59.2581C79.4856 59.0007 79.3569 58.5718 79.3998 58.0141V53.8104H81.5446V51.923H79.3998V49.4351L76.869 50.1643V51.923Z" fill="white"/>
<path fill-rule="evenodd" clip-rule="evenodd" d="M87.8502 58.2277C87.8502 58.6137 87.7644 58.9569 87.5499 59.2143C87.3784 59.4717 87.1639 59.6432 86.9065 59.729C86.6491 59.8577 86.4347 59.9006 86.2202 59.9006C85.877 59.9006 85.6197 59.8148 85.3623 59.6003C85.1478 59.3859 85.0191 59.0427 84.9762 58.6137C84.9762 58.1419 85.1478 57.7987 85.4052 57.5414C85.6626 57.284 86.0486 57.1124 86.4776 57.0266C86.9065 56.9408 87.3355 56.8979 87.8073 56.8979V58.2277H87.8502ZM90.3382 55.7398C90.3382 55.0105 90.2524 54.3671 89.995 53.7666C89.7805 53.166 89.3945 52.6942 88.8368 52.3081C88.2792 51.9221 87.5071 51.7505 86.5205 51.7505C85.7483 51.7505 85.1049 51.8363 84.5473 52.0079C83.9896 52.1794 83.5178 52.351 83.2175 52.5655L83.6894 54.2384C83.9896 54.0239 84.3757 53.8953 84.7617 53.7666C85.1907 53.6379 85.6197 53.595 86.0486 53.595C86.7349 53.595 87.2068 53.7666 87.4213 54.0668C87.6786 54.3671 87.7644 54.7961 87.7644 55.2679C86.2202 55.2679 84.9333 55.5682 83.9896 56.1687C83.0459 56.7692 82.5312 57.67 82.4883 58.914C82.4883 59.729 82.7457 60.3725 83.2604 60.9301C83.7752 61.4877 84.4615 61.788 85.3623 61.788C85.9199 61.788 86.3918 61.7022 86.8207 61.4877C87.2497 61.2733 87.6357 60.973 87.8931 60.5869H87.936L88.1076 61.5735H90.4239C90.381 61.2733 90.3382 60.9301 90.2953 60.544C90.2524 60.158 90.2524 59.729 90.2524 59.3001V55.7398H90.3382Z" fill="white"/>
<path fill-rule="evenodd" clip-rule="evenodd" d="M100.804 55.6545C100.804 54.3247 100.461 53.3381 99.9034 52.6947C99.3029 52.0512 98.5736 51.751 97.6728 51.751C96.9865 51.751 96.386 51.9226 95.9141 52.2228C95.4423 52.5231 95.0991 52.8663 94.8846 53.2523H94.8417L94.713 51.9226H92.5254C92.5254 52.3515 92.5683 52.7805 92.5683 53.2523C92.5683 53.7242 92.5683 54.2389 92.5683 54.7965V61.5311H95.142V55.7831C95.1849 55.0539 95.3565 54.5392 95.6996 54.2389C96.0428 53.9386 96.4289 53.7671 96.772 53.7671C97.3297 53.7671 97.6728 53.9815 97.9302 54.3676C98.1447 54.7537 98.2734 55.2684 98.2734 55.8689V61.4882H100.847V55.6545H100.804Z" fill="white"/>
<path fill-rule="evenodd" clip-rule="evenodd" d="M108.826 57.5845C108.783 58.3567 108.612 58.8714 108.226 59.2146C107.882 59.5148 107.496 59.6864 107.067 59.6864C106.467 59.6864 105.995 59.429 105.652 58.8714C105.309 58.3567 105.137 57.6274 105.137 56.7695C105.137 55.9116 105.309 55.1824 105.652 54.6248C105.995 54.0671 106.467 53.7669 107.11 53.724C107.539 53.724 107.925 53.8955 108.268 54.2387C108.612 54.5819 108.783 55.0966 108.783 55.8258L108.826 57.5845ZM111.4 47.6328H108.826V52.8232H108.783C108.612 52.48 108.311 52.2226 107.882 52.0081C107.496 51.7937 107.025 51.7079 106.424 51.7079C105.738 51.7079 105.094 51.9224 104.494 52.3084C103.893 52.6945 103.421 53.2521 103.078 54.0242C102.735 54.7963 102.521 55.6971 102.521 56.8124C102.521 58.3138 102.907 59.4719 103.55 60.3727C104.236 61.2735 105.137 61.7025 106.252 61.7454C106.853 61.7454 107.368 61.6167 107.882 61.3164C108.354 61.0591 108.74 60.673 108.998 60.2012H109.041L109.169 61.5738H111.4C111.4 61.1877 111.357 60.8017 111.357 60.2869C111.357 59.8151 111.314 59.3004 111.314 58.8285V47.6328H111.4Z" fill="white"/>
<path fill-rule="evenodd" clip-rule="evenodd" d="M118.434 58.2282C118.434 58.6142 118.348 58.9574 118.134 59.2148C117.962 59.4721 117.748 59.6437 117.49 59.7295C117.233 59.8582 117.019 59.9011 116.804 59.9011C116.461 59.9011 116.204 59.8153 115.946 59.6008C115.732 59.3864 115.603 59.0432 115.56 58.6142C115.56 58.1424 115.732 57.7992 115.989 57.5419C116.247 57.2845 116.633 57.1129 117.062 57.0271C117.49 56.9413 117.919 56.8984 118.391 56.8984V58.2282H118.434ZM120.922 55.7402C120.922 55.011 120.836 54.3676 120.579 53.7671C120.364 53.1665 119.978 52.6947 119.421 52.3086C118.863 51.9226 118.091 51.751 117.104 51.751C116.332 51.751 115.689 51.8368 115.131 52.0084C114.574 52.1799 114.102 52.3515 113.801 52.566L114.273 54.2389C114.574 54.0244 114.96 53.8957 115.346 53.7671C115.775 53.6384 116.204 53.5955 116.633 53.5955C117.319 53.5955 117.791 53.7671 118.005 54.0673C118.263 54.3676 118.348 54.7965 118.348 55.2684C116.804 55.2684 115.517 55.5687 114.574 56.1692C113.63 56.7697 113.115 57.6705 113.072 58.9145C113.072 59.7295 113.33 60.3729 113.844 60.9306C114.359 61.4882 115.045 61.7885 115.946 61.7885C116.504 61.7885 116.976 61.7027 117.405 61.4882C117.834 61.2737 118.22 60.9735 118.477 60.5874H118.52L118.692 61.574H121.008C120.965 61.2737 120.922 60.9306 120.879 60.5445C120.836 60.1585 120.836 59.7295 120.836 59.3006V55.7402H120.922Z" fill="white"/>
<path fill-rule="evenodd" clip-rule="evenodd" d="M128.428 51.7509C128.343 51.7509 128.257 51.708 128.171 51.708C128.085 51.708 127.999 51.708 127.871 51.708C127.399 51.708 126.97 51.8796 126.498 52.1799C126.069 52.4801 125.726 52.952 125.469 53.5954H125.383L125.297 51.9225H123.109C123.109 52.3514 123.152 52.8233 123.152 53.2951C123.152 53.767 123.152 54.3246 123.195 54.9252V61.5311H125.769V56.5552C125.769 55.7402 125.983 55.1396 126.369 54.7107C126.755 54.3246 127.227 54.1102 127.828 54.1102C127.957 54.1102 128.085 54.1102 128.171 54.1102C128.3 54.1102 128.386 54.1102 128.471 54.153L128.428 51.7509Z" fill="white"/>
<path fill-rule="evenodd" clip-rule="evenodd" d="M135.593 57.5845C135.55 58.3567 135.378 58.8714 134.992 59.2146C134.649 59.5148 134.263 59.6864 133.834 59.6864C133.233 59.6864 132.762 59.429 132.418 58.8714C132.075 58.3567 131.904 57.6274 131.904 56.7695C131.904 55.9116 132.075 55.1824 132.376 54.6248C132.719 54.0671 133.191 53.7669 133.877 53.724C134.306 53.724 134.692 53.8955 135.035 54.2387C135.378 54.5819 135.55 55.0966 135.55 55.8258L135.593 57.5845ZM138.124 47.6328H135.55V52.8232H135.507C135.292 52.48 135.035 52.2226 134.606 52.0081C134.22 51.7937 133.748 51.7079 133.148 51.7079C132.461 51.7079 131.818 51.9224 131.217 52.3084C130.617 52.6945 130.145 53.2521 129.802 54.0242C129.459 54.7963 129.244 55.6971 129.244 56.8124C129.244 58.3138 129.63 59.4719 130.274 60.3727C130.96 61.2735 131.861 61.7025 132.976 61.7454C133.577 61.7454 134.091 61.6167 134.606 61.3164C135.078 61.0591 135.464 60.673 135.721 60.2012H135.764L135.893 61.5738H138.124C138.124 61.1877 138.081 60.8017 138.081 60.2869C138.081 59.8151 138.081 59.3004 138.038 58.8285V47.6328H138.124Z" fill="white"/>
</g>
<defs>
<clipPath id="clip0_664_6">
<rect width="160" height="74.209" fill="white" transform="translate(0 0.275879)"/>
</clipPath>
</defs>
</svg>
