<svg width="195" height="42" viewBox="0 0 195 42" fill="none" xmlns="http://www.w3.org/2000/svg">
<path d="M68.9503 28.288C65.4896 25.251 64.5713 21.2958 64.5713 17.8701C64.5713 15.4686 65.3129 11.3017 68.7032 8.19388C71.246 5.86314 74.6009 4.45068 79.8627 4.45068C82.0522 4.45068 83.3588 4.59194 84.9834 4.804C86.3254 4.98065 87.4553 5.29855 88.5149 5.40439C88.9032 5.43979 89.0444 5.61605 89.0444 5.82812C89.0444 6.11061 88.9386 6.53434 88.8678 7.77053C88.797 8.93589 88.8324 10.8783 88.762 11.5845C88.7265 12.1145 88.6561 12.3966 88.3382 12.3966C88.0557 12.3966 87.9849 12.1141 87.9849 11.6195C87.9495 10.5246 87.4904 9.28881 86.6075 8.37052C85.4421 7.13434 82.6876 6.18104 79.4386 6.18104C76.3662 6.18104 74.3534 6.95807 72.7993 8.37052C70.2215 10.7367 69.5503 14.0915 69.5503 17.5168C69.5503 25.9215 75.9421 30.0888 80.6744 30.0888C83.8176 30.0888 85.7242 29.7355 87.1371 28.1113C87.7374 27.4405 88.1966 26.416 88.3378 25.7806C88.4437 25.2156 88.5145 25.0744 88.797 25.0744C89.0441 25.0744 89.1149 25.3215 89.1149 25.6039C89.1149 26.0277 88.6911 29.1001 88.3378 30.3008C88.1612 30.9012 88.0199 31.0779 87.4195 31.3249C86.0071 31.8899 83.323 32.137 81.0627 32.137C76.225 32.137 72.1639 31.0779 68.9503 28.288Z" fill="white"/>
<path d="M101.403 6.92227L96.1415 7.06352C94.0932 7.13394 93.2458 7.31061 92.7158 8.08765C92.3625 8.61761 92.1862 9.04095 92.1154 9.32383C92.0446 9.60671 91.9388 9.74756 91.7271 9.74756C91.48 9.74756 91.4092 9.57091 91.4092 9.18258C91.4092 8.6176 92.08 5.40399 92.1508 5.1215C92.2567 4.66236 92.3629 4.45068 92.5746 4.45068C92.857 4.45068 93.2104 4.80399 94.0932 4.87441C95.1174 4.98064 96.4594 5.05107 97.6247 5.05107H111.61C112.74 5.05107 113.517 4.94523 114.046 4.87441C114.576 4.76858 114.858 4.69777 114.999 4.69777C115.247 4.69777 115.282 4.90944 115.282 5.4394C115.282 6.18104 115.176 8.6176 115.176 9.53589C115.141 9.88919 115.07 10.1009 114.858 10.1009C114.576 10.1009 114.505 9.92421 114.47 9.39464L114.434 9.00632C114.364 8.08803 113.41 7.09932 110.267 7.0285L105.817 6.92266V21.4016C105.817 24.6506 105.817 27.4405 105.994 28.9588C106.1 29.9475 106.312 30.7246 107.371 30.8658C107.866 30.9362 108.642 31.007 109.172 31.007C109.561 31.007 109.737 31.1129 109.737 31.2895C109.737 31.5366 109.455 31.6429 109.066 31.6429C106.736 31.6429 104.511 31.537 103.522 31.537C102.71 31.537 100.485 31.6429 99.0726 31.6429C98.6135 31.6429 98.3664 31.537 98.3664 31.2895C98.3664 31.1129 98.5076 31.007 98.9314 31.007C99.4609 31.007 99.8847 30.9362 100.203 30.8658C100.909 30.7246 101.121 29.9475 101.227 28.9234C101.403 27.4401 101.403 24.6503 101.403 21.4012V6.92227Z" fill="white"/>
<path d="M121.991 15.1859C121.991 9.81825 121.991 8.82915 121.92 7.69919C121.85 6.49841 121.567 5.93344 120.402 5.68636C120.119 5.61555 119.519 5.58013 119.024 5.58013C118.636 5.58013 118.424 5.5097 118.424 5.26223C118.424 5.01476 118.671 4.94434 119.201 4.94434C121.072 4.94434 123.297 5.05017 124.286 5.05017C125.734 5.05017 127.782 4.94434 129.407 4.94434C133.821 4.94434 135.41 6.4276 135.975 6.95717C136.752 7.69881 137.741 9.2879 137.741 11.1595C137.741 16.1739 134.068 19.7058 129.053 19.7058C128.877 19.7058 128.488 19.7058 128.312 19.6704C128.135 19.635 127.888 19.5999 127.888 19.3525C127.888 19.07 128.135 18.9641 128.877 18.9641C130.855 18.9641 133.609 16.7392 133.609 13.1373C133.609 11.9719 133.503 9.6058 131.525 7.84004C130.254 6.67468 128.806 6.463 127.994 6.463C127.464 6.463 126.934 6.49841 126.616 6.60425C126.44 6.67468 126.334 6.88674 126.334 7.27507V21.4007C126.334 24.6497 126.334 27.4396 126.511 28.9579C126.616 29.9466 126.828 30.7237 127.888 30.8649C128.383 30.9353 129.159 31.0061 129.689 31.0061C130.078 31.0061 130.254 31.112 130.254 31.2886C130.254 31.5357 129.972 31.6419 129.583 31.6419C127.252 31.6419 125.027 31.5361 124.109 31.5361C123.297 31.5361 121.072 31.6419 119.66 31.6419C119.2 31.6419 118.953 31.5361 118.953 31.2886C118.953 31.112 119.095 31.0061 119.518 31.0061C120.048 31.0061 120.472 30.9353 120.79 30.8649C121.496 30.7237 121.672 29.9466 121.814 28.9225C121.99 27.4392 121.99 24.6493 121.99 21.4003L121.991 15.1859Z" fill="white"/>
<path d="M144.981 22.4255C144.805 22.4255 144.734 22.4959 144.663 22.708L142.756 27.7582C142.403 28.6411 142.227 29.4885 142.227 29.9123C142.227 30.548 142.545 31.0072 143.639 31.0072H144.169C144.592 31.0072 144.699 31.0776 144.699 31.2897C144.699 31.5722 144.487 31.643 144.098 31.643C142.968 31.643 141.45 31.5372 140.355 31.5372C139.966 31.5372 138.024 31.643 136.187 31.643C135.728 31.643 135.517 31.5726 135.517 31.2897C135.517 31.078 135.658 31.0072 135.94 31.0072C136.258 31.0072 136.753 30.9718 137.035 30.9364C138.66 30.7247 139.331 29.5239 140.037 27.7582L148.901 5.58042C149.325 4.5563 149.537 4.16797 149.89 4.16797C150.208 4.16797 150.42 4.48586 150.773 5.29792C151.62 7.24033 157.271 21.6485 159.531 27.0162C160.873 30.1947 161.897 30.6889 162.638 30.8656C163.168 30.9714 163.698 31.0068 164.122 31.0068C164.404 31.0068 164.581 31.0422 164.581 31.2893C164.581 31.5718 164.263 31.6426 162.956 31.6426C161.685 31.6426 159.107 31.6426 156.282 31.5722C155.647 31.5368 155.222 31.5368 155.222 31.2897C155.222 31.078 155.364 31.0072 155.717 30.9718C155.964 30.9014 156.212 30.5835 156.035 30.1597L153.21 22.673C153.139 22.4963 153.033 22.4259 152.856 22.4259H144.981V22.4255ZM152.185 20.6598C152.362 20.6598 152.397 20.5539 152.362 20.4477L149.184 11.7251C149.149 11.5839 149.113 11.4072 149.007 11.4072C148.901 11.4072 148.831 11.5839 148.795 11.7251L145.546 20.4127C145.511 20.5539 145.546 20.6598 145.687 20.6598H152.185Z" fill="white"/>
<path d="M170.901 6.92227L165.64 7.06352C163.591 7.13394 162.744 7.31061 162.214 8.08765C161.861 8.61761 161.684 9.04095 161.613 9.32383C161.543 9.60632 161.437 9.74756 161.225 9.74756C160.978 9.74756 160.907 9.57091 160.907 9.18258C160.907 8.6176 161.578 5.40399 161.649 5.1215C161.755 4.66236 161.861 4.45068 162.073 4.45068C162.355 4.45068 162.708 4.80399 163.591 4.87441C164.615 4.98064 165.957 5.05107 167.123 5.05107H181.107C182.237 5.05107 183.014 4.94523 183.544 4.87441C184.074 4.76858 184.356 4.69777 184.498 4.69777C184.745 4.69777 184.78 4.90944 184.78 5.4394C184.78 6.18104 184.675 8.6176 184.675 9.53589C184.639 9.88919 184.569 10.1009 184.357 10.1009C184.074 10.1009 184.003 9.92421 183.968 9.39464L183.933 9.00632C183.862 8.08803 182.909 7.09932 179.766 7.0285L175.316 6.92266V21.4016C175.316 24.6506 175.316 27.4405 175.493 28.9588C175.599 29.9475 175.811 30.7246 176.87 30.8658C177.365 30.9362 178.141 31.007 178.671 31.007C179.06 31.007 179.236 31.1129 179.236 31.2895C179.236 31.5366 178.954 31.6429 178.565 31.6429C176.234 31.6429 174.01 31.537 173.021 31.537C172.209 31.537 169.984 31.6429 168.571 31.6429C168.112 31.6429 167.865 31.537 167.865 31.2895C167.865 31.1129 168.006 31.007 168.43 31.007C168.959 31.007 169.383 30.9362 169.701 30.8658C170.407 30.7246 170.619 29.9475 170.725 28.9234C170.902 27.4401 170.902 24.6503 170.902 21.4012L170.901 6.92227Z" fill="white"/>
<path d="M63.6133 37.5996H64.2872L65.5141 39.6506L66.7409 37.5996H67.4207L65.8047 40.1471V41.8665H65.2265V40.1471L63.6133 37.5996Z" fill="white"/>
<path d="M71.627 38.2097C71.9099 38.5872 72.0511 39.0704 72.0511 39.6592C72.0511 40.2965 71.8893 40.8257 71.5659 41.2479C71.1862 41.7436 70.6453 41.9915 69.9422 41.9915C69.2858 41.9915 68.7694 41.7747 68.3939 41.3409C68.0589 40.9226 67.8916 40.3942 67.8916 39.7549C67.8916 39.1778 68.0348 38.6841 68.3216 38.2732C68.6897 37.7463 69.2336 37.4829 69.9539 37.4829C70.7072 37.4837 71.2648 37.7257 71.627 38.2097ZM71.1173 40.9296C71.3449 40.5642 71.4585 40.144 71.4585 39.6693C71.4585 39.1673 71.3274 38.7634 71.0651 38.4568C70.8025 38.1506 70.4441 37.9977 69.9889 37.9977C69.5472 37.9977 69.1873 38.1494 68.9083 38.4526C68.6293 38.7561 68.49 39.2031 68.49 39.7942C68.49 40.267 68.6095 40.6658 68.8488 40.9903C69.0881 41.3148 69.4757 41.4775 70.0122 41.4775C70.5212 41.4778 70.8897 41.295 71.1173 40.9296Z" fill="white"/>
<path d="M73.5671 37.5995V40.2369C73.5671 40.5466 73.6254 40.8042 73.7429 41.0096C73.9165 41.3193 74.2095 41.4742 74.6211 41.4742C75.1149 41.4742 75.4507 41.3069 75.6285 40.9715C75.7243 40.7894 75.7721 40.5446 75.7721 40.2365V37.5991H76.3558V39.9956C76.3558 40.5205 76.285 40.924 76.1429 41.2069C75.8826 41.7221 75.3908 41.9793 74.6682 41.9793C73.9453 41.9793 73.4546 41.7217 73.1962 41.2069C73.0542 40.924 72.9834 40.5205 72.9834 39.9956V37.5991L73.5671 37.5995Z" fill="white"/>
<path d="M77.5102 37.5996H79.4499C79.7693 37.5996 80.0327 37.6471 80.2401 37.742C80.6335 37.9241 80.8304 38.2599 80.8304 38.7498C80.8304 39.0054 80.7775 39.2144 80.672 39.377C80.5666 39.5397 80.4187 39.6704 80.2288 39.7692C80.3954 39.837 80.5207 39.9261 80.6051 40.0366C80.6895 40.1471 80.7362 40.3261 80.746 40.5739L80.7662 41.1463C80.772 41.3089 80.7856 41.4299 80.807 41.5093C80.8421 41.6447 80.9039 41.7319 80.993 41.7708V41.8665H80.2841C80.2646 41.83 80.2491 41.7821 80.2378 41.7241C80.2261 41.6661 80.2164 41.5537 80.2086 41.3872L80.1736 40.6755C80.1604 40.3965 80.0596 40.2097 79.8716 40.1148C79.7642 40.0622 79.5961 40.0362 79.3666 40.0362H78.088V41.8661H77.5098V37.5996H77.5102ZM79.3876 39.5549C79.651 39.5549 79.86 39.5008 80.0133 39.3922C80.1666 39.2836 80.2436 39.0883 80.2436 38.8054C80.2436 38.5016 80.1362 38.2942 79.9214 38.1836C79.8067 38.1257 79.653 38.0965 79.4611 38.0965H78.0884V39.5545H79.3876V39.5549Z" fill="white"/>
<path d="M84.1713 40.4898C84.1845 40.7319 84.2394 40.9284 84.3363 41.0797C84.5211 41.3626 84.8464 41.5039 85.3129 41.5039C85.5219 41.5039 85.7121 41.4731 85.8837 41.4108C86.2156 41.291 86.3818 41.0758 86.3818 40.7661C86.3818 40.5338 86.3113 40.3681 86.1709 40.2692C86.0281 40.1723 85.8051 40.0883 85.5012 40.0163L84.9413 39.8856C84.5756 39.8004 84.3168 39.7066 84.1647 39.6039C83.902 39.4256 83.7709 39.1595 83.7709 38.805C83.7709 38.4218 83.9001 38.107 84.158 37.8611C84.416 37.6151 84.7818 37.4922 85.2549 37.4922C85.6903 37.4922 86.06 37.6003 86.3643 37.8159C86.6686 38.0319 86.8207 38.377 86.8207 38.8513H86.2775C86.2499 38.6229 86.1903 38.4474 86.0993 38.3256C85.9304 38.1031 85.6433 37.9914 85.2386 37.9914C84.9117 37.9914 84.6771 38.063 84.5339 38.2062C84.3907 38.3498 84.3195 38.5159 84.3195 38.7058C84.3195 38.9148 84.404 39.068 84.5728 39.1645C84.6833 39.2264 84.9339 39.3039 85.3242 39.3969L85.904 39.5334C86.1837 39.5992 86.3993 39.6895 86.5514 39.8035C86.8141 40.0031 86.9456 40.2926 86.9456 40.6719C86.9456 41.1443 86.7779 41.4824 86.4425 41.6856C86.1071 41.8891 85.718 41.9906 85.274 41.9906C84.7565 41.9906 84.3514 41.8552 84.0588 41.584C83.7658 41.3147 83.6226 40.9498 83.6281 40.4891H84.1713V40.4898Z" fill="white"/>
<path d="M88.5889 37.5995V40.2369C88.5889 40.5466 88.6477 40.8042 88.7648 41.0096C88.9383 41.3193 89.2313 41.4742 89.643 41.4742C90.1368 41.4742 90.4726 41.3069 90.65 40.9715C90.7457 40.7894 90.7936 40.5446 90.7936 40.2365V37.5991H91.3773V39.9956C91.3773 40.5205 91.3064 40.924 91.1644 41.2069C90.9041 41.7221 90.4123 41.9793 89.6897 41.9793C88.9668 41.9793 88.4761 41.7217 88.2177 41.2069C88.0761 40.924 88.0049 40.5205 88.0049 39.9956V37.5991L88.5889 37.5995Z" fill="white"/>
<path d="M92.5176 37.5996H94.4269C94.8044 37.5996 95.1094 37.7066 95.3413 37.9206C95.5736 38.1346 95.6896 38.4354 95.6896 38.8226C95.6896 39.1556 95.5861 39.4455 95.3791 39.6926C95.1721 39.9397 94.8549 40.063 94.4281 40.063H93.0958V41.8669H92.5176V37.5996ZM94.7596 38.1868C94.6328 38.1268 94.4588 38.0965 94.2374 38.0965H93.0954V39.5751H94.2374C94.495 39.5751 94.7044 39.5198 94.8647 39.4097C95.025 39.2992 95.1055 39.1047 95.1055 38.8261C95.1055 38.512 94.9903 38.2988 94.7596 38.1868Z" fill="white"/>
<path d="M96.6875 37.5996H98.5968C98.9743 37.5996 99.2793 37.7066 99.5112 37.9206C99.7435 38.1346 99.8595 38.4354 99.8595 38.8226C99.8595 39.1556 99.756 39.4455 99.549 39.6926C99.342 39.9397 99.0249 40.063 98.598 40.063H97.2657V41.8669H96.6875V37.5996ZM98.9295 38.1868C98.8027 38.1268 98.6287 38.0965 98.4073 38.0965H97.2653V39.5751H98.4073C98.6649 39.5751 98.8743 39.5198 99.0346 39.4097C99.1949 39.2992 99.2754 39.1047 99.2754 38.8261C99.2758 38.512 99.1603 38.2988 98.9295 38.1868Z" fill="white"/>
<path d="M100.803 37.5996H101.381V41.3583H103.521V41.8665H100.803V37.5996Z" fill="white"/>
<path d="M103.546 37.5996H104.22L105.447 39.6506L106.674 37.5996H107.353L105.737 40.1471V41.8665H105.159V40.1471L103.546 37.5996Z" fill="white"/>
<path d="M112.813 37.9106C113.108 38.1955 113.272 38.5188 113.304 38.8807H112.741C112.678 38.606 112.553 38.3877 112.366 38.227C112.178 38.0663 111.916 37.9861 111.577 37.9861C111.164 37.9861 110.831 38.134 110.577 38.4293C110.323 38.7247 110.196 39.178 110.196 39.7885C110.196 40.2885 110.311 40.6943 110.54 41.0052C110.769 41.3165 111.111 41.4717 111.566 41.4717C111.984 41.4717 112.303 41.3079 112.522 40.9807C112.638 40.8083 112.725 40.5818 112.781 40.3009H113.345C113.295 40.7499 113.13 41.127 112.851 41.4309C112.516 41.797 112.064 41.9799 111.496 41.9799C111.006 41.9799 110.594 41.8297 110.261 41.5293C109.823 41.132 109.604 40.5188 109.604 39.6892C109.604 39.0597 109.768 38.5433 110.097 38.1402C110.453 37.7025 110.944 37.4834 111.57 37.4834C112.104 37.4838 112.519 37.6262 112.813 37.9106Z" fill="white"/>
<path d="M114.309 37.5996H114.892V39.363H117.085V37.5996H117.669V41.8665H117.085V39.8712H114.892V41.8665H114.309V37.5996Z" fill="white"/>
<path d="M120.037 37.5996H120.69L122.238 41.8665H121.605L121.16 40.5883H119.486L119.023 41.8665H118.431L120.037 37.5996ZM120.996 40.1183L120.339 38.2331L119.657 40.1183H120.996Z" fill="white"/>
<path d="M123.093 37.5996H123.676V41.8665H123.093V37.5996Z" fill="white"/>
<path d="M125.067 37.5996H125.748L127.876 41.0475V37.5996H128.428V41.8665H127.779L125.62 38.4229V41.8665H125.068L125.067 37.5996Z" fill="white"/>
<path d="M129.855 38.8401C129.963 38.8226 130.045 38.7626 130.1 38.6599C130.156 38.5572 130.183 38.4393 130.183 38.3055C130.183 38.2918 130.183 38.2798 130.182 38.2693C130.181 38.2588 130.179 38.2467 130.175 38.2331H129.855V37.5996H130.477V38.1836C130.477 38.4315 130.426 38.642 130.323 38.8156C130.22 38.9891 130.065 39.0883 129.855 39.1132V38.8401Z" fill="white"/>
<path d="M132.216 40.4898C132.229 40.7319 132.284 40.9284 132.381 41.0797C132.566 41.3626 132.891 41.5039 133.358 41.5039C133.567 41.5039 133.757 41.4731 133.929 41.4108C134.261 41.291 134.427 41.0758 134.427 40.7661C134.427 40.5338 134.356 40.3681 134.216 40.2692C134.073 40.1723 133.85 40.0883 133.546 40.0163L132.986 39.8856C132.62 39.8004 132.362 39.7066 132.21 39.6039C131.947 39.4256 131.816 39.1595 131.816 38.805C131.816 38.4218 131.945 38.107 132.203 37.8611C132.461 37.6151 132.827 37.4922 133.3 37.4922C133.735 37.4922 134.105 37.6003 134.409 37.8159C134.713 38.0319 134.866 38.377 134.866 38.8513H134.322C134.295 38.6229 134.235 38.4474 134.144 38.3256C133.975 38.1031 133.688 37.9914 133.284 37.9914C132.957 37.9914 132.722 38.063 132.579 38.2062C132.436 38.3498 132.364 38.5159 132.364 38.7058C132.364 38.9148 132.449 39.068 132.618 39.1645C132.728 39.2264 132.979 39.3039 133.369 39.3969L133.949 39.5334C134.229 39.5992 134.444 39.6895 134.596 39.8035C134.859 40.0031 134.991 40.2926 134.991 40.6719C134.991 41.1443 134.823 41.4824 134.487 41.6856C134.152 41.8891 133.763 41.9906 133.319 41.9906C132.801 41.9906 132.396 41.8552 132.104 41.584C131.811 41.3147 131.668 40.9498 131.673 40.4891H132.216V40.4898Z" fill="white"/>
<path d="M138.396 40.4898C138.409 40.7319 138.464 40.9284 138.561 41.0797C138.746 41.3626 139.071 41.5039 139.538 41.5039C139.746 41.5039 139.937 41.4731 140.108 41.4108C140.44 41.291 140.606 41.0758 140.606 40.7661C140.606 40.5338 140.536 40.3681 140.396 40.2692C140.253 40.1723 140.03 40.0883 139.726 40.0163L139.166 39.8856C138.8 39.8004 138.541 39.7066 138.389 39.6039C138.127 39.4256 137.995 39.1595 137.995 38.805C137.995 38.4218 138.125 38.107 138.383 37.8611C138.641 37.6151 139.006 37.4922 139.48 37.4922C139.915 37.4922 140.285 37.6003 140.589 37.8159C140.893 38.0319 141.045 38.377 141.045 38.8513H140.502C140.474 38.6229 140.415 38.4474 140.324 38.3256C140.155 38.1031 139.868 37.9914 139.463 37.9914C139.136 37.9914 138.902 38.063 138.759 38.2062C138.615 38.3498 138.544 38.5159 138.544 38.7058C138.544 38.9148 138.629 39.068 138.797 39.1645C138.908 39.2264 139.159 39.3039 139.549 39.3969L140.129 39.5334C140.408 39.5992 140.624 39.6895 140.776 39.8035C141.039 40.0031 141.17 40.2926 141.17 40.6719C141.17 41.1443 141.003 41.4824 140.667 41.6856C140.332 41.8891 139.943 41.9906 139.499 41.9906C138.981 41.9906 138.576 41.8552 138.283 41.584C137.99 41.3147 137.847 40.9498 137.853 40.4891H138.396V40.4898Z" fill="white"/>
<path d="M145.368 37.5996V38.1082H143.93V41.8669H143.346V38.1082H141.908V37.5996H145.368Z" fill="white"/>
<path d="M146.249 37.5996H148.189C148.508 37.5996 148.772 37.6471 148.979 37.742C149.372 37.9241 149.569 38.2599 149.569 38.7498C149.569 39.0054 149.516 39.2144 149.411 39.377C149.305 39.5397 149.158 39.6704 148.968 39.7692C149.134 39.837 149.26 39.9261 149.344 40.0366C149.428 40.1471 149.475 40.3261 149.485 40.5739L149.505 41.1463C149.511 41.3089 149.525 41.4299 149.546 41.5093C149.581 41.6447 149.642 41.7319 149.732 41.7708V41.8665H149.023C149.004 41.83 148.988 41.7821 148.977 41.7241C148.965 41.6661 148.955 41.5537 148.948 41.3872L148.913 40.6755C148.9 40.3965 148.799 40.2097 148.611 40.1148C148.504 40.0622 148.335 40.0362 148.105 40.0362H146.827V41.8661H146.249V37.5996ZM148.126 39.5549C148.39 39.5549 148.599 39.5008 148.752 39.3922C148.906 39.2836 148.982 39.0883 148.982 38.8054C148.982 38.5016 148.875 38.2942 148.66 38.1836C148.546 38.1257 148.392 38.0965 148.2 38.0965H146.827V39.5545H148.126V39.5549Z" fill="white"/>
<path d="M154.341 38.2097C154.624 38.5872 154.765 39.0704 154.765 39.6592C154.765 40.2965 154.604 40.8257 154.28 41.2479C153.9 41.7436 153.359 41.9915 152.656 41.9915C152 41.9915 151.484 41.7747 151.108 41.3409C150.773 40.9226 150.605 40.3942 150.605 39.7549C150.605 39.1778 150.749 38.6841 151.035 38.2732C151.403 37.7463 151.948 37.4829 152.668 37.4829C153.421 37.4837 153.979 37.7257 154.341 38.2097ZM153.832 40.9296C154.059 40.5642 154.173 40.144 154.173 39.6693C154.173 39.1673 154.042 38.7634 153.779 38.4568C153.517 38.1506 153.158 37.9977 152.703 37.9977C152.262 37.9977 151.902 38.1494 151.623 38.4526C151.344 38.7561 151.204 39.2031 151.204 39.7942C151.204 40.267 151.324 40.6658 151.563 40.9903C151.802 41.3148 152.19 41.4775 152.727 41.4775C153.235 41.4778 153.604 41.295 153.832 40.9296Z" fill="white"/>
<path d="M155.805 37.5996H156.486L158.614 41.0475V37.5996H159.166V41.8665H158.516L156.357 38.4229V41.8665H155.805V37.5996H155.805Z" fill="white"/>
<path d="M163.292 37.722C163.71 37.9445 163.966 38.3348 164.059 38.8924H163.487C163.419 38.5807 163.278 38.3535 163.063 38.211C162.849 38.0686 162.579 37.9974 162.253 37.9974C161.866 37.9974 161.54 38.1457 161.276 38.4418C161.011 38.7379 160.879 39.1795 160.879 39.7663C160.879 40.2737 160.988 40.6865 161.206 41.0052C161.424 41.3239 161.78 41.483 162.273 41.483C162.651 41.483 162.964 41.371 163.211 41.1476C163.459 40.9239 163.586 40.5624 163.592 40.0628H162.255V39.5834H164.129V41.8667H163.757L163.618 41.3176C163.425 41.5328 163.255 41.6819 163.106 41.7651C162.857 41.9083 162.539 41.9799 162.155 41.9799C161.657 41.9799 161.23 41.8165 160.872 41.4892C160.481 41.0787 160.286 40.5153 160.286 39.7986C160.286 39.0842 160.477 38.5157 160.859 38.0935C161.222 37.6908 161.691 37.4893 162.267 37.4893C162.662 37.4896 163.004 37.5671 163.292 37.722Z" fill="white"/>
<path d="M165.069 37.5996H168.165V38.1226H165.632V39.4183H167.973V39.9121H165.632V41.3587H168.208V41.8669H165.068L165.069 37.5996Z" fill="white"/>
<path d="M169.293 40.4898C169.307 40.7319 169.361 40.9284 169.458 41.0797C169.643 41.3626 169.968 41.5039 170.435 41.5039C170.644 41.5039 170.834 41.4731 171.006 41.4108C171.338 41.291 171.504 41.0758 171.504 40.7661C171.504 40.5338 171.433 40.3681 171.293 40.2692C171.15 40.1723 170.927 40.0883 170.623 40.0163L170.063 39.8856C169.698 39.8004 169.439 39.7066 169.287 39.6039C169.024 39.4256 168.893 39.1595 168.893 38.805C168.893 38.4218 169.022 38.107 169.28 37.8611C169.538 37.6151 169.904 37.4922 170.377 37.4922C170.812 37.4922 171.182 37.6003 171.486 37.8159C171.791 38.0319 171.943 38.377 171.943 38.8513H171.4C171.372 38.6229 171.312 38.4474 171.221 38.3256C171.052 38.1031 170.765 37.9914 170.361 37.9914C170.034 37.9914 169.799 38.063 169.656 38.2062C169.513 38.3498 169.442 38.5159 169.442 38.7058C169.442 38.9148 169.526 39.068 169.695 39.1645C169.805 39.2264 170.056 39.3039 170.446 39.3969L171.026 39.5334C171.306 39.5992 171.521 39.6895 171.673 39.8035C171.936 40.0031 172.068 40.2926 172.068 40.6719C172.068 41.1443 171.9 41.4824 171.565 41.6856C171.229 41.8891 170.84 41.9906 170.396 41.9906C169.879 41.9906 169.474 41.8552 169.181 41.584C168.888 41.3147 168.745 40.9498 168.75 40.4891H169.293V40.4898Z" fill="white"/>
<path d="M176.307 37.5996V38.1082H174.869V41.8669H174.285V38.1082H172.848V37.5996H176.307Z" fill="white"/>
<path d="M179.185 37.5996H179.762V41.3583H181.903V41.8665H179.185V37.5996Z" fill="white"/>
<path d="M183.022 37.5996H183.606V41.8665H183.022V37.5996Z" fill="white"/>
<path d="M184.942 37.5996H185.623L187.751 41.0475V37.5996H188.303V41.8665H187.654L185.495 38.4229V41.8665H184.943V37.5996H184.942Z" fill="white"/>
<path d="M189.638 37.5996H190.201V39.6883L192.336 37.5996H193.144L191.321 39.3218L193.182 41.8665H192.425L190.896 39.7222L190.201 40.379V41.8661H189.638V37.5996Z" fill="white"/>
<path d="M194.06 41.2339H194.667V41.8669H194.06V41.2339Z" fill="white"/>
<path d="M45.6143 6.63368H49.5271C48.0692 3.98544 46.5917 2.21656 45.9026 1.45703H42.7275C43.2999 2.18076 44.4742 3.85548 45.6143 6.63368Z" fill="white"/>
<path d="M11.8615 6.63368C13.0016 3.85548 14.1759 2.18076 14.7483 1.45703H11.5794C10.9012 2.21656 9.44674 3.98544 8.01172 6.63368H11.8615Z" fill="white"/>
<path d="M19.4417 1.45703H15.5701L15.5277 1.53291C14.7277 2.99828 13.7102 4.53135 12.7646 6.63368H17.7117C18.5818 3.3512 19.4218 1.50217 19.4218 1.50217L19.4417 1.45703Z" fill="white"/>
<path d="M37.1647 1.45703H31.9375L32.4741 6.63368H38.9566C38.0573 3.24925 37.1647 1.45703 37.1647 1.45703Z" fill="white"/>
<path d="M39.6796 6.63368H44.7119C43.7664 4.53135 42.7489 2.99828 41.9489 1.53291L41.9065 1.45703L38.0088 1.46949C38.0088 1.46949 38.8485 3.35392 39.6796 6.63368Z" fill="white"/>
<path d="M10.4492 1.60528L10.5239 1.45703H8.59047C7.01926 3.01306 5.62782 4.75003 4.44922 6.63368H7.04493C8.77295 3.47649 10.4492 1.60528 10.4492 1.60528Z" fill="white"/>
<path d="M50.3779 6.63368H52.9845C51.8059 4.75003 50.4144 3.01306 48.8432 1.45703H46.9121C46.9121 1.45703 48.6755 3.43485 50.3779 6.63368Z" fill="white"/>
<path d="M9.8634 13.4651C10.3187 11.1141 10.9093 9.12735 11.5295 7.47949H7.57001C6.71787 9.17365 5.90231 11.1779 5.29492 13.4651H9.8634Z" fill="white"/>
<path d="M53.0755 13.4651H56.0934C55.4534 11.3565 54.5775 9.35069 53.4946 7.47949H50.8125C51.6506 9.16976 52.4685 11.183 53.0755 13.4651Z" fill="white"/>
<path d="M17.4955 7.47949H12.4021C11.7446 9.09077 11.1426 11.0246 10.7021 13.4651H16.3597C16.6702 11.1779 17.0784 9.16743 17.4955 7.47949Z" fill="white"/>
<path d="M45.0741 7.47949H39.8857C40.2857 9.16859 40.6795 11.1791 40.9838 13.4651H46.7741C46.334 11.0246 45.7321 9.09077 45.0741 7.47949Z" fill="white"/>
<path d="M52.2881 13.4651C51.6706 11.1775 50.8422 9.17326 49.9765 7.47949H45.9473C46.5675 9.12774 47.1582 11.1145 47.6134 13.4651H52.2881Z" fill="white"/>
<path d="M24.9654 7.47949H18.3662C18.1378 8.51918 17.6475 10.8608 17.2607 13.4651H24.6821C24.8456 10.3238 24.9277 8.51179 24.9654 7.47949Z" fill="white"/>
<path d="M6.59704 7.47949H3.93868C2.8558 9.35108 1.97992 11.3565 1.33984 13.4651H4.26125C4.87759 11.2048 5.72584 9.18416 6.59704 7.47949Z" fill="white"/>
<path d="M16.2501 14.311H10.5587C10.2482 16.2826 10.0404 18.5678 9.98438 21.2491H15.8105C15.8272 18.7414 15.9949 16.4173 16.2501 14.311Z" fill="white"/>
<path d="M24.4329 18.1293C24.5115 16.692 24.5792 15.4274 24.638 14.311H17.1403C16.9925 15.3966 16.8687 16.5079 16.7944 17.5729C16.7123 18.7457 16.6897 20.0083 16.7026 21.2491H24.4045C24.3932 19.9628 24.394 18.8383 24.4329 18.1293Z" fill="white"/>
<path d="M54.0719 21.2491H57.3171C57.2731 18.8527 56.9342 16.5285 56.3354 14.311H53.2871C53.7852 16.4246 54.0929 18.7507 54.0719 21.2491Z" fill="white"/>
<path d="M9.70765 14.311H5.08315C4.58937 16.4091 4.27731 18.7281 4.26758 21.2491H9.02166C9.10376 18.6671 9.35318 16.3593 9.70765 14.311Z" fill="white"/>
<path d="M31.9616 14.311H25.3561C25.2335 16.7869 25.2187 20.4122 25.2168 21.2491H32.1156C32.0985 20.3371 32.0289 16.7818 31.9616 14.311Z" fill="white"/>
<path d="M47.7676 14.311C48.1221 16.3593 48.3715 18.6671 48.4536 21.2491H53.331C53.3209 18.7281 53.0038 16.4087 52.5018 14.311H47.7676Z" fill="white"/>
<path d="M3.32049 21.0962C3.24929 18.6834 3.54228 16.4032 4.04422 14.311H1.09792C0.499088 16.5289 0.16018 18.8527 0.116211 21.2491H3.32555C3.32399 21.1982 3.32205 21.1476 3.32049 21.0962Z" fill="white"/>
<path d="M25.8193 36.8164H31.6088C31.6088 36.8164 31.1349 41.6378 31.073 41.7818C31.0112 41.9261 26.396 41.7818 26.396 41.7818C26.396 41.7818 25.8193 37.2285 25.8193 36.8164Z" fill="white"/>
<path d="M15.8101 22.0952H9.97316C9.96071 24.5291 10.1809 26.7987 10.5432 28.8726H16.2288C15.9529 26.4995 15.8253 24.2333 15.8101 22.0952Z" fill="white"/>
<path d="M24.4137 22.0952H16.7168C16.7981 25.6598 17.1343 28.8224 17.1343 28.8224L17.1366 28.8726H24.4199C24.4903 27.203 24.4413 24.4789 24.4137 22.0952Z" fill="white"/>
<path d="M47.5029 22.0952H41.5508C41.55 24.2345 41.4446 26.5006 41.2002 28.8726H46.9648C47.3091 26.8462 47.5173 24.5863 47.5029 22.0952Z" fill="white"/>
<path d="M9.64932 28.8726C9.08512 25.58 9.01314 22.9637 9.00614 22.0952H4.27539C4.32909 24.5676 4.63999 26.8314 5.10653 28.8726H9.64932Z" fill="white"/>
<path d="M3.35842 22.0952H0.113281C0.138184 24.4322 0.441686 26.7022 0.994604 28.8726H4.15881C3.75608 26.8948 3.47748 24.659 3.35842 22.0952Z" fill="white"/>
<path d="M54.0545 22.0952C53.972 24.6485 53.6864 26.8847 53.2549 28.8726H56.4389C56.9922 26.7022 57.2957 24.4322 57.3203 22.0952H54.0545Z" fill="white"/>
<path d="M53.3238 22.0952H48.4694C48.4624 22.9637 48.3904 25.5804 47.8262 28.8726H52.4791C52.9538 26.8314 53.2698 24.5676 53.3238 22.0952Z" fill="white"/>
<path d="M52.2709 29.7183H47.6733C47.304 31.6482 46.7639 33.7665 45.9756 35.8778H49.9624C50.8176 34.1646 51.648 32.1042 52.2709 29.7183Z" fill="white"/>
<path d="M41.1079 29.7183C40.8876 31.6175 40.5787 33.5809 40.1596 35.6008L40.0693 35.8778H45.011C45.6896 34.1797 46.3433 32.1245 46.811 29.7183H41.1079Z" fill="white"/>
<path d="M11.5008 35.8778C10.7121 33.7665 10.1724 31.6482 9.80317 29.7183H5.3125C5.92534 32.1042 6.74169 34.1646 7.58254 35.8778H11.5008Z" fill="white"/>
<path d="M53.0592 29.7183C52.4736 32.0937 51.6752 34.1031 50.7705 35.8778H53.6164C54.7082 33.9525 55.5837 31.8887 56.209 29.7183H53.0592Z" fill="white"/>
<path d="M40.2357 29.7183H32.8968L32.5879 35.8778H39.1221C39.5365 34.1544 39.9385 32.0895 40.2357 29.7183Z" fill="white"/>
<path d="M4.3425 29.7183H1.22461C1.8499 31.8887 2.725 33.9525 3.81722 35.8778H6.50049C5.63706 34.1241 4.89503 32.1175 4.3425 29.7183Z" fill="white"/>
<path d="M10.7012 29.7183C11.163 32.0533 11.7973 34.1214 12.4615 35.8778H17.444C16.9537 33.7595 16.5911 31.7031 16.3331 29.7183H10.7012Z" fill="white"/>
<path d="M41.9055 41.8177C42.0588 41.4453 43.353 39.7368 44.6588 36.7231H39.7942L38.1133 41.8869H41.8822C41.8892 41.864 41.8954 41.8422 41.9055 41.8177Z" fill="white"/>
<path d="M14.6222 41.8874L14.5701 41.8232C13.4448 40.2236 12.5475 38.4851 11.8308 36.7236H8.01367C9.70161 39.9127 11.3604 41.6944 11.5444 41.8874H14.6222Z" fill="white"/>
<path d="M38.9105 36.7236H32.433C32.433 36.7236 32.2716 40.0388 31.9385 41.8874H37.2007C37.2895 41.6917 38.0934 39.8797 38.9105 36.7236Z" fill="white"/>
<path d="M49.5232 36.7236H45.645C44.9286 38.4855 44.0313 40.2236 42.9057 41.8232L42.8535 41.8874H45.9317C46.1193 41.6944 47.8064 39.9127 49.5232 36.7236Z" fill="white"/>
<path d="M46.9404 41.8874H49.0688C50.6066 40.3306 51.9673 38.5987 53.1175 36.7236H50.3221C49.2579 38.6579 48.0786 40.3155 46.9404 41.8874Z" fill="white"/>
<path d="M4.31641 36.7236C5.4666 38.5987 6.8273 40.3306 8.36504 41.8874H10.4495C9.20084 40.3318 7.99346 38.6851 6.93704 36.7236H4.31641Z" fill="white"/>
<path d="M186.868 1.01361V0.549805H189.236V1.01361H188.328V3.328H187.776V1.01361H186.868ZM190.502 0.549805L191.211 2.53851L191.926 0.549805H192.715V3.328H192.206V1.08638L191.437 3.328H190.992L190.217 1.08638V3.328H189.707V0.549805H190.502Z" fill="white"/>
</svg>
