<svg width="160" height="43" viewBox="0 0 160 43" fill="none" xmlns="http://www.w3.org/2000/svg">
<path d="M124.563 24.6306C124.394 23.7157 124.141 22.8183 123.807 21.9482C123.146 20.2104 122.134 18.6269 120.837 17.2943C119.492 15.9221 117.888 14.8282 116.118 14.0775C114.134 13.2695 112.009 12.8742 109.866 12.9115C107.703 12.8742 105.553 13.272 103.546 14.0775C101.747 14.8158 100.113 15.9096 98.7459 17.2943C97.4283 18.6467 96.4016 20.2527 95.7279 22.0178C95.0193 23.8226 94.6589 25.7468 94.6613 27.6859C94.6539 29.5852 95.0169 31.4696 95.7279 33.2371C96.4289 34.9972 97.483 36.5957 98.8229 37.9307C100.173 39.2756 101.781 40.3347 103.551 41.0432C105.533 41.8337 107.648 42.229 109.781 42.2017C112.685 42.2663 115.549 41.5379 118.057 40.1035C120.257 38.8679 122.045 37.0134 123.201 34.771L123.551 34.0525L116.954 32.2477L116.678 32.6032C115.75 33.7965 114.52 34.7188 113.113 35.2756C111.701 35.8375 110.164 36.014 108.663 35.7902C107.164 35.5665 105.749 34.95 104.568 34.0028C103.395 33.0606 102.495 31.8201 101.968 30.4105H124.533L124.658 29.886C124.742 29.518 124.792 29.1452 124.802 28.7698V27.4522C124.802 26.5149 124.717 25.5777 124.546 24.6554L124.563 24.6306ZM109.918 19.1812C111.497 19.1862 113.045 19.6237 114.395 20.4466C115.735 21.262 116.822 22.4379 117.53 23.835H102.308C103.017 22.4354 104.103 21.262 105.443 20.4441C106.791 19.6237 108.339 19.1862 109.918 19.1812ZM60.1429 24.6306C59.9714 23.7157 59.7178 22.8183 59.3847 21.9482C58.7234 20.2104 57.7116 18.6269 56.4139 17.2943C55.0665 15.9221 53.463 14.8307 51.6929 14.0775C49.7116 13.262 47.5786 12.8593 45.4331 12.8916C43.2703 12.8618 41.1249 13.267 39.1211 14.0775C37.3212 14.8158 35.6879 15.9096 34.3206 17.2943C33.003 18.6467 31.9738 20.2527 31.2976 22.0178C30.6015 23.8251 30.2485 25.7468 30.256 27.6859C30.2535 29.5877 30.6139 31.4721 31.3225 33.2371C32.026 34.9947 33.0801 36.5932 34.4201 37.9282C35.77 39.2731 37.3784 40.3322 39.146 41.0432C41.1224 41.8337 43.2405 42.229 45.3735 42.2041C48.2796 42.2688 51.1435 41.5404 53.6569 40.106C55.8421 38.8605 57.6122 36.9984 58.7483 34.7536L59.1063 34.0351L52.5084 32.2502L52.2299 32.6057C51.3001 33.799 50.0696 34.7213 48.665 35.2781C47.2529 35.8375 45.7165 36.0165 44.2125 35.7902C42.7134 35.5665 41.2989 34.95 40.1155 34.0028C38.9421 33.0606 38.0422 31.8201 37.5151 30.4105H60.0808L60.2076 29.886C60.302 29.5056 60.3518 29.1128 60.3567 28.7225V27.4049C60.3592 26.4677 60.2747 25.5305 60.1056 24.6082L60.1429 24.6306ZM37.8657 23.8375C38.5717 22.4354 39.6556 21.257 40.9956 20.4391C42.3455 19.6163 43.8968 19.1787 45.4779 19.1812C47.0615 19.1812 48.6152 19.6163 49.9602 20.4391C51.3001 21.257 52.384 22.4354 53.0901 23.8375H37.8657ZM19.663 19.216L13.8656 16.8344C10.8202 15.6163 7.95137 14.4628 7.95137 11.5069C7.95137 8.75243 10.4797 6.96747 14.3902 6.96747C15.4691 6.96498 16.5455 7.10171 17.5897 7.3702L17.6742 7.41744H17.7214C17.8159 7.44975 17.9079 7.48207 17.9924 7.51688H18.0297L18.1093 7.54174L18.333 7.64118L18.4399 7.68841L18.604 7.76299C18.7631 7.83757 18.9197 7.91464 19.0465 7.98922L19.3025 8.13092L19.4666 8.23533L19.7127 8.38698L19.8843 8.50879C20.5232 8.95379 21.095 9.48828 21.5847 10.0924L21.893 10.4553L22.3206 10.3136L28.4809 8.69276L28.108 7.96436C26.952 5.7717 25.172 3.96935 22.9943 2.78601C21.187 1.77669 19.1857 1.14524 17.1173 0.928957C16.2199 0.762395 15.31 0.675382 14.3976 0.67041C10.6263 0.67041 7.17573 1.77171 4.66982 3.77792C3.43675 4.72509 2.43488 5.94323 1.74128 7.3354C1.05265 8.72259 0.69218 10.2465 0.689694 11.7953C0.689694 16.6281 3.55359 20.1433 9.44547 22.5299L15.218 24.9438C18.7382 26.3981 21.2814 27.4522 21.2814 30.7163C21.2814 33.9804 18.4672 35.8847 13.9377 35.8847H12.9334C12.0981 35.8101 11.2752 35.6187 10.4921 35.3179L10.3802 35.2756L10.2783 35.2284L10.1291 35.1339L10.0322 35.0917H9.99488L9.86809 35.027C9.71147 34.9549 9.55734 34.8754 9.40818 34.7909L9.32365 34.7436L9.21675 34.6865H9.17946L8.99798 34.5398L8.75684 34.3881L8.60768 34.2837C8.35162 34.0998 8.10301 33.9034 7.86684 33.697C7.51631 33.3738 7.19313 33.0233 6.90226 32.6479L6.60394 32.285L6.1664 32.4267L-0.00390625 34.0674L0.364024 34.7958C0.612626 35.2955 0.901006 35.7778 1.2217 36.2352L1.31866 36.3968L1.47279 36.5758C2.56415 37.9854 3.9265 39.1613 5.48026 40.0388C6.8078 40.8045 8.2472 41.3564 9.74627 41.6721L9.82086 41.702H9.89046C11.1832 42.0227 12.5107 42.1768 13.8432 42.1644C18.1416 42.1644 21.8433 40.9885 24.5108 38.7685C25.7786 37.7542 26.8004 36.4664 27.5064 35.0072C28.2075 33.5528 28.5729 31.9593 28.5729 30.3434C28.5729 23.748 24.0682 21.0234 19.6605 19.2309V19.216H19.663Z" fill="white"/>
<path d="M148.561 42.3244H140.934L134.577 32.8652L128.178 42.3244H120.514L130.791 27.8782L120.188 13.0342H127.847L148.561 42.3244ZM85.0832 0.432617V15.1523C82.6991 13.5637 79.8974 12.721 77.036 12.7334C68.9415 12.7334 62.3486 19.3711 62.3486 27.5351C62.3486 35.6992 68.939 42.3369 77.036 42.3369C79.8998 42.3468 82.7016 41.5065 85.0832 39.918V42.2175H92.3945V0.432617H85.0832ZM77.0335 19.391C78.6767 19.3462 80.2976 19.7837 81.6947 20.6514C83.0794 21.5115 84.1783 22.7695 84.8445 24.2586C85.5058 25.7402 85.7022 27.386 85.4088 28.982C85.113 30.5805 84.3448 32.0547 83.1988 33.2107C82.0453 34.3767 80.5711 35.1722 78.9651 35.5028C77.3542 35.8359 75.6786 35.6893 74.1522 35.0777C72.6332 34.4736 71.3256 33.4295 70.4008 32.0821C69.4835 30.7446 68.9912 29.1585 68.9888 27.5351C68.9639 25.3997 69.7967 23.3437 71.3007 21.8248C72.8197 20.2959 74.8781 19.4208 77.0335 19.391Z" fill="white"/>
<path d="M146.505 0.858897C143.996 0.856411 141.538 1.54504 139.397 2.85019C137.269 4.14292 135.546 6.00743 134.423 8.22745C132.143 12.7371 132.665 18.1591 135.76 22.1516L142.186 12.6476H149.359L140.024 25.7663C143.688 27.7452 148.056 27.9465 151.887 26.3157C153.771 25.5152 155.447 24.297 156.789 22.7507C158.122 21.2144 159.081 19.3946 159.596 17.4257C160.106 15.4642 160.153 13.4133 159.735 11.4294C159.313 9.44062 158.437 7.5786 157.177 5.98506C155.907 4.38158 154.288 3.08885 152.444 2.20383C150.592 1.31632 148.561 0.856411 146.505 0.858897Z" fill="white"/>
<path d="M19.663 19.2126L13.8656 16.831C10.8202 15.6153 7.95136 14.4594 7.95136 11.506C7.95136 8.75149 10.4796 6.96653 14.3901 6.96653C15.4691 6.96405 16.5455 7.10078 17.5897 7.36926L17.6742 7.4165H17.7214C17.8159 7.44882 17.9079 7.48114 17.9924 7.51594H18.0297L18.1092 7.5408L18.333 7.64024L18.4399 7.68747L18.6039 7.76205C18.7631 7.83663 18.9197 7.9137 19.0465 7.98828L19.3025 8.12999L19.4666 8.2344L19.7127 8.38604L19.8843 8.50786C20.5232 8.95285 21.0949 9.48734 21.5847 10.0914L21.893 10.4544L22.3206 10.3127L28.4809 8.69182L28.108 7.96342C26.952 5.76828 25.172 3.96592 22.9943 2.78258C21.1869 1.77326 19.1857 1.14182 17.1173 0.925535C16.2199 0.758973 15.31 0.671964 14.3976 0.666992C10.6263 0.666992 7.17572 1.76829 4.66981 3.77201C3.43674 4.71918 2.43488 5.93733 1.74128 7.32949C1.05265 8.71668 0.69218 10.2406 0.689694 11.7894C0.689694 16.6222 3.55359 20.1374 9.44545 22.5264L15.218 24.9404C18.7382 26.3947 21.2814 27.4487 21.2814 30.7129C21.2814 33.977 18.4672 35.8813 13.9377 35.8813H12.9333C12.098 35.8067 11.2752 35.6153 10.4921 35.3145L10.3802 35.2722L10.2783 35.225L10.1291 35.1305L10.0322 35.0882H9.99487L9.86808 35.0236C9.71146 34.9515 9.55733 34.872 9.40816 34.7899L9.32364 34.7427L9.21674 34.6855H9.17945L8.99797 34.5388L8.75683 34.3872L8.60767 34.2828C8.35161 34.0988 8.10301 33.9024 7.86683 33.6961C7.5163 33.3729 7.19312 33.0224 6.90226 32.647L6.60393 32.284L6.16639 32.4257L-0.00390625 34.069L0.364024 34.7974C0.612626 35.2971 0.901005 35.7769 1.2217 36.2343L1.31866 36.3959L1.47279 36.5749C2.56415 37.9844 3.92649 39.1628 5.48025 40.0379C6.80779 40.8036 8.24719 41.353 9.74626 41.6687L9.82084 41.701H9.89045C11.1807 42.0217 12.5107 42.1758 13.8432 42.1634C18.1416 42.1634 21.8432 40.9875 24.5107 38.7675C25.7786 37.7532 26.8004 36.4655 27.5064 35.0062C28.2074 33.5519 28.5729 31.9584 28.5729 30.3425C28.5729 23.7471 24.0682 21.0224 19.6605 19.23V19.2126H19.663Z" fill="white"/>
<path d="M19.663 19.2126L13.8656 16.831C10.8202 15.6153 7.95136 14.4594 7.95136 11.506C7.95136 8.75149 10.4796 6.96653 14.3901 6.96653C15.4691 6.96405 16.5455 7.10078 17.5897 7.36926L17.6742 7.4165H17.7214C17.8159 7.44882 17.9079 7.48114 17.9924 7.51594H18.0297L18.1092 7.5408L18.333 7.64024L18.4399 7.68747L18.6039 7.76205C18.7631 7.83663 18.9197 7.9137 19.0465 7.98828L19.3025 8.12999L19.4666 8.2344L19.7127 8.38604L19.8843 8.50786C20.5232 8.95285 21.0949 9.48734 21.5847 10.0914L21.893 10.4544L22.3206 10.3127L28.4809 8.69182L28.108 7.96342C26.952 5.76828 25.172 3.96592 22.9943 2.78258C21.1869 1.77326 19.1857 1.14182 17.1173 0.925535C16.2199 0.758973 15.31 0.671964 14.3976 0.666992C10.6263 0.666992 7.17572 1.76829 4.66981 3.77201C3.43674 4.71918 2.43488 5.93733 1.74128 7.32949C1.05265 8.71668 0.69218 10.2406 0.689694 11.7894C0.689694 16.6222 3.55359 20.1374 9.44545 22.5264L15.218 24.9404C18.7382 26.3947 21.2814 27.4487 21.2814 30.7129C21.2814 33.977 18.4672 35.8813 13.9377 35.8813H12.9333C12.098 35.8067 11.2752 35.6153 10.4921 35.3145L10.3802 35.2722L10.2783 35.225L10.1291 35.1305L10.0322 35.0882H9.99487L9.86808 35.0236C9.71146 34.9515 9.55733 34.872 9.40816 34.7899L9.32364 34.7427L9.21674 34.6855H9.17945L8.99797 34.5388L8.75683 34.3872L8.60767 34.2828C8.35161 34.0988 8.10301 33.9024 7.86683 33.6961C7.5163 33.3729 7.19312 33.0224 6.90226 32.647L6.60393 32.284L6.16639 32.4257L-0.00390625 34.069L0.364024 34.7974C0.612626 35.2971 0.901005 35.7769 1.2217 36.2343L1.31866 36.3959L1.47279 36.5749C2.56415 37.9844 3.92649 39.1628 5.48025 40.0379C6.80779 40.8036 8.24719 41.353 9.74626 41.6687L9.82084 41.701H9.89045C11.1807 42.0217 12.5107 42.1758 13.8432 42.1634C18.1416 42.1634 21.8432 40.9875 24.5107 38.7675C25.7786 37.7532 26.8004 36.4655 27.5064 35.0062C28.2074 33.5519 28.5729 31.9584 28.5729 30.3425C28.5729 23.7471 24.0682 21.0224 19.6605 19.23V19.2126H19.663Z" fill="white"/>
</svg>
